<mxfile host="65bd71144e">
    <diagram id="K594d0jOccpO4_IZrgsY" name="AllgemeineSystemDarstellung">
        <mxGraphModel dx="808" dy="607" grid="1" gridSize="10" guides="1" tooltips="1" connect="1" arrows="1" fold="1" page="1" pageScale="1" pageWidth="827" pageHeight="1169" math="0" shadow="0">
            <root>
                <mxCell id="0"/>
                <mxCell id="1" parent="0"/>
                <mxCell id="7" style="edgeStyle=orthogonalEdgeStyle;rounded=0;html=1;exitX=0;exitY=0.25;exitDx=0;exitDy=0;fontSize=9;startArrow=classic;startFill=1;endArrow=oval;endFill=1;" parent="1" source="2" edge="1">
                    <mxGeometry relative="1" as="geometry">
                        <mxPoint x="90" y="130" as="targetPoint"/>
                        <Array as="points">
                            <mxPoint x="90" y="50"/>
                            <mxPoint x="90" y="130"/>
                        </Array>
                    </mxGeometry>
                </mxCell>
                <mxCell id="13" style="edgeStyle=orthogonalEdgeStyle;rounded=0;html=1;fontSize=9;startArrow=none;startFill=0;endArrow=classic;endFill=1;" parent="1" source="2" edge="1">
                    <mxGeometry relative="1" as="geometry">
                        <mxPoint x="240" y="60" as="targetPoint"/>
                    </mxGeometry>
                </mxCell>
                <mxCell id="2" value="&lt;div style=&quot;color: rgb(59, 59, 59); background-color: rgb(255, 255, 255); font-family: Consolas, &amp;quot;Courier New&amp;quot;, monospace; font-size: 14px; line-height: 19px;&quot;&gt;λ&lt;/div&gt;" style="rounded=0;whiteSpace=wrap;html=1;" parent="1" vertex="1">
                    <mxGeometry x="120" y="40" width="40" height="40" as="geometry"/>
                </mxCell>
                <mxCell id="6" style="edgeStyle=orthogonalEdgeStyle;rounded=0;html=1;exitX=0;exitY=0.75;exitDx=0;exitDy=0;fontSize=9;startArrow=classic;startFill=1;endArrow=oval;endFill=1;" parent="1" source="3" edge="1">
                    <mxGeometry relative="1" as="geometry">
                        <mxPoint x="100" y="149.88888888888886" as="targetPoint"/>
                    </mxGeometry>
                </mxCell>
                <mxCell id="8" style="edgeStyle=orthogonalEdgeStyle;rounded=0;html=1;exitX=0;exitY=0.25;exitDx=0;exitDy=0;fontSize=9;startArrow=classic;startFill=1;endArrow=none;endFill=0;" parent="1" source="3" edge="1">
                    <mxGeometry relative="1" as="geometry">
                        <mxPoint x="40" y="130" as="targetPoint"/>
                    </mxGeometry>
                </mxCell>
                <mxCell id="9" style="edgeStyle=orthogonalEdgeStyle;rounded=0;html=1;entryX=1;entryY=0.5;entryDx=0;entryDy=0;fontSize=9;startArrow=none;startFill=0;endArrow=classic;endFill=1;" parent="1" source="3" target="4" edge="1">
                    <mxGeometry relative="1" as="geometry">
                        <Array as="points">
                            <mxPoint x="180" y="140"/>
                            <mxPoint x="180" y="220"/>
                        </Array>
                    </mxGeometry>
                </mxCell>
                <mxCell id="10" style="edgeStyle=orthogonalEdgeStyle;rounded=0;html=1;fontSize=9;startArrow=classic;startFill=1;endArrow=oval;endFill=0;" parent="1" source="3" edge="1">
                    <mxGeometry relative="1" as="geometry">
                        <mxPoint x="80" y="280" as="targetPoint"/>
                        <Array as="points">
                            <mxPoint x="140" y="180"/>
                            <mxPoint x="80" y="180"/>
                        </Array>
                    </mxGeometry>
                </mxCell>
                <mxCell id="3" value="&lt;div style=&quot;color: rgb(59, 59, 59); background-color: rgb(255, 255, 255); font-family: Consolas, &amp;quot;Courier New&amp;quot;, monospace; font-size: 14px; line-height: 19px;&quot;&gt;δ&lt;/div&gt;" style="rounded=0;whiteSpace=wrap;html=1;" parent="1" vertex="1">
                    <mxGeometry x="120" y="120" width="40" height="40" as="geometry"/>
                </mxCell>
                <mxCell id="5" style="edgeStyle=orthogonalEdgeStyle;html=1;exitX=0;exitY=0.5;exitDx=0;exitDy=0;entryX=0;entryY=0.75;entryDx=0;entryDy=0;fontSize=9;rounded=0;" parent="1" source="4" target="2" edge="1">
                    <mxGeometry relative="1" as="geometry">
                        <Array as="points">
                            <mxPoint x="100" y="220"/>
                            <mxPoint x="100" y="70"/>
                        </Array>
                    </mxGeometry>
                </mxCell>
                <mxCell id="4" value="&lt;font style=&quot;font-size: 9px;&quot;&gt;Speicher&lt;/font&gt;" style="rounded=0;whiteSpace=wrap;html=1;" parent="1" vertex="1">
                    <mxGeometry x="120" y="200" width="40" height="40" as="geometry"/>
                </mxCell>
                <mxCell id="11" value="a" style="text;html=1;align=center;verticalAlign=middle;resizable=0;points=[];autosize=1;strokeColor=none;fillColor=none;fontSize=9;" parent="1" vertex="1">
                    <mxGeometry x="15" y="110" width="30" height="20" as="geometry"/>
                </mxCell>
                <mxCell id="12" value="q&lt;sub&gt;0&lt;/sub&gt;" style="text;html=1;align=center;verticalAlign=middle;resizable=0;points=[];autosize=1;strokeColor=none;fillColor=none;fontSize=9;" parent="1" vertex="1">
                    <mxGeometry x="56" y="271" width="30" height="30" as="geometry"/>
                </mxCell>
                <mxCell id="14" value="" style="rounded=0;whiteSpace=wrap;html=1;fontSize=9;dashed=1;fillColor=none;" parent="1" vertex="1">
                    <mxGeometry x="60" y="30" width="150" height="220" as="geometry"/>
                </mxCell>
                <mxCell id="16" value="Black Box" style="text;html=1;align=center;verticalAlign=middle;resizable=0;points=[];autosize=1;strokeColor=none;fillColor=none;fontSize=9;" parent="1" vertex="1">
                    <mxGeometry x="180" y="250" width="60" height="20" as="geometry"/>
                </mxCell>
                <mxCell id="18" value="b" style="text;html=1;align=center;verticalAlign=middle;resizable=0;points=[];autosize=1;strokeColor=none;fillColor=none;" parent="1" vertex="1">
                    <mxGeometry x="210" y="30" width="30" height="30" as="geometry"/>
                </mxCell>
            </root>
        </mxGraphModel>
    </diagram>
    <diagram id="zi7JdgpSJoC7Q3oNLpYD" name="LinearesDiffSystem">
        <mxGraphModel dx="1500" dy="506" grid="1" gridSize="10" guides="1" tooltips="1" connect="1" arrows="1" fold="1" page="1" pageScale="1" pageWidth="827" pageHeight="1169" math="0" shadow="0">
            <root>
                <mxCell id="0"/>
                <mxCell id="1" parent="0"/>
                <mxCell id="rnQ1suCqDnfkqFcSD9r7-4" style="edgeStyle=none;html=1;entryX=0;entryY=0.5;entryDx=0;entryDy=0;" edge="1" parent="1" source="rnQ1suCqDnfkqFcSD9r7-1" target="rnQ1suCqDnfkqFcSD9r7-3">
                    <mxGeometry relative="1" as="geometry"/>
                </mxCell>
                <mxCell id="rnQ1suCqDnfkqFcSD9r7-5" style="edgeStyle=none;html=1;startArrow=classic;startFill=1;endArrow=none;endFill=0;" edge="1" parent="1" source="rnQ1suCqDnfkqFcSD9r7-1">
                    <mxGeometry relative="1" as="geometry">
                        <mxPoint x="40" y="60" as="targetPoint"/>
                    </mxGeometry>
                </mxCell>
                <mxCell id="rnQ1suCqDnfkqFcSD9r7-10" style="edgeStyle=none;html=1;startArrow=none;startFill=0;endArrow=none;endFill=0;dashed=1;" edge="1" parent="1" source="rnQ1suCqDnfkqFcSD9r7-1">
                    <mxGeometry relative="1" as="geometry">
                        <mxPoint x="93.4026580459772" y="20.308897522674215" as="targetPoint"/>
                    </mxGeometry>
                </mxCell>
                <mxCell id="rnQ1suCqDnfkqFcSD9r7-1" value="B" style="rounded=0;whiteSpace=wrap;html=1;" vertex="1" parent="1">
                    <mxGeometry x="80" y="40" width="40" height="40" as="geometry"/>
                </mxCell>
                <mxCell id="rnQ1suCqDnfkqFcSD9r7-16" style="edgeStyle=none;html=1;entryX=0;entryY=0.5;entryDx=0;entryDy=0;fontSize=23;startArrow=none;startFill=0;endArrow=classic;endFill=1;" edge="1" parent="1" source="rnQ1suCqDnfkqFcSD9r7-2" target="rnQ1suCqDnfkqFcSD9r7-15">
                    <mxGeometry relative="1" as="geometry"/>
                </mxCell>
                <mxCell id="rnQ1suCqDnfkqFcSD9r7-29" style="edgeStyle=none;rounded=0;html=1;fontSize=23;startArrow=classic;startFill=1;endArrow=oval;endFill=0;" edge="1" parent="1" source="rnQ1suCqDnfkqFcSD9r7-2">
                    <mxGeometry relative="1" as="geometry">
                        <mxPoint x="260" y="110" as="targetPoint"/>
                    </mxGeometry>
                </mxCell>
                <mxCell id="rnQ1suCqDnfkqFcSD9r7-2" value="&lt;div style=&quot;color: rgb(59, 59, 59); background-color: rgb(255, 255, 255); font-family: Consolas, &amp;quot;Courier New&amp;quot;, monospace; line-height: 19px;&quot;&gt;&lt;font style=&quot;font-size: 23px;&quot;&gt;∫&lt;/font&gt;&lt;/div&gt;" style="rounded=0;whiteSpace=wrap;html=1;" vertex="1" parent="1">
                    <mxGeometry x="240" y="40" width="40" height="40" as="geometry"/>
                </mxCell>
                <mxCell id="rnQ1suCqDnfkqFcSD9r7-11" style="edgeStyle=none;html=1;entryX=0;entryY=0.5;entryDx=0;entryDy=0;startArrow=none;startFill=0;endArrow=classic;endFill=1;" edge="1" parent="1" source="rnQ1suCqDnfkqFcSD9r7-3" target="rnQ1suCqDnfkqFcSD9r7-2">
                    <mxGeometry relative="1" as="geometry"/>
                </mxCell>
                <mxCell id="rnQ1suCqDnfkqFcSD9r7-3" value="+" style="ellipse;whiteSpace=wrap;html=1;aspect=fixed;" vertex="1" parent="1">
                    <mxGeometry x="160" y="40" width="40" height="40" as="geometry"/>
                </mxCell>
                <mxCell id="rnQ1suCqDnfkqFcSD9r7-6" value="U" style="text;html=1;align=center;verticalAlign=middle;resizable=0;points=[];autosize=1;strokeColor=none;fillColor=none;" vertex="1" parent="1">
                    <mxGeometry x="10" y="45" width="30" height="30" as="geometry"/>
                </mxCell>
                <mxCell id="rnQ1suCqDnfkqFcSD9r7-7" value="Input-Vektor" style="text;html=1;align=center;verticalAlign=middle;resizable=0;points=[];autosize=1;strokeColor=none;fillColor=none;" vertex="1" parent="1">
                    <mxGeometry x="-10" y="30" width="90" height="30" as="geometry"/>
                </mxCell>
                <mxCell id="rnQ1suCqDnfkqFcSD9r7-8" value="Gewichtung der Inputs" style="text;html=1;align=center;verticalAlign=middle;resizable=0;points=[];autosize=1;strokeColor=none;fillColor=none;" vertex="1" parent="1">
                    <mxGeometry x="30" width="140" height="30" as="geometry"/>
                </mxCell>
                <mxCell id="rnQ1suCqDnfkqFcSD9r7-12" value="x'" style="text;html=1;align=center;verticalAlign=middle;resizable=0;points=[];autosize=1;strokeColor=none;fillColor=none;" vertex="1" parent="1">
                    <mxGeometry x="201" y="34" width="30" height="30" as="geometry"/>
                </mxCell>
                <mxCell id="rnQ1suCqDnfkqFcSD9r7-23" style="edgeStyle=none;rounded=0;html=1;fontSize=23;startArrow=none;startFill=0;endArrow=classic;endFill=1;" edge="1" parent="1" source="rnQ1suCqDnfkqFcSD9r7-15">
                    <mxGeometry relative="1" as="geometry">
                        <mxPoint x="440" y="60" as="targetPoint"/>
                    </mxGeometry>
                </mxCell>
                <mxCell id="rnQ1suCqDnfkqFcSD9r7-28" style="edgeStyle=none;rounded=0;html=1;exitX=0.5;exitY=1;exitDx=0;exitDy=0;fontSize=23;startArrow=none;startFill=0;endArrow=none;endFill=0;dashed=1;" edge="1" parent="1" source="rnQ1suCqDnfkqFcSD9r7-15">
                    <mxGeometry relative="1" as="geometry">
                        <mxPoint x="384" y="107" as="targetPoint"/>
                    </mxGeometry>
                </mxCell>
                <mxCell id="rnQ1suCqDnfkqFcSD9r7-15" value="C" style="rounded=0;whiteSpace=wrap;html=1;" vertex="1" parent="1">
                    <mxGeometry x="360" y="40" width="40" height="40" as="geometry"/>
                </mxCell>
                <mxCell id="rnQ1suCqDnfkqFcSD9r7-19" style="edgeStyle=none;html=1;fontSize=23;startArrow=none;startFill=0;endArrow=none;endFill=0;dashed=1;" edge="1" parent="1" source="rnQ1suCqDnfkqFcSD9r7-17">
                    <mxGeometry relative="1" as="geometry">
                        <mxPoint x="180.23089308965768" y="189.89383225213913" as="targetPoint"/>
                    </mxGeometry>
                </mxCell>
                <mxCell id="rnQ1suCqDnfkqFcSD9r7-20" style="edgeStyle=none;html=1;entryX=0.5;entryY=1;entryDx=0;entryDy=0;fontSize=23;startArrow=none;startFill=0;endArrow=classic;endFill=1;" edge="1" parent="1" source="rnQ1suCqDnfkqFcSD9r7-17" target="rnQ1suCqDnfkqFcSD9r7-3">
                    <mxGeometry relative="1" as="geometry"/>
                </mxCell>
                <mxCell id="rnQ1suCqDnfkqFcSD9r7-21" style="edgeStyle=none;html=1;fontSize=23;startArrow=classic;startFill=1;endArrow=oval;endFill=1;rounded=0;" edge="1" parent="1" source="rnQ1suCqDnfkqFcSD9r7-17">
                    <mxGeometry relative="1" as="geometry">
                        <mxPoint x="320" y="60" as="targetPoint"/>
                        <Array as="points">
                            <mxPoint x="320" y="140"/>
                        </Array>
                    </mxGeometry>
                </mxCell>
                <mxCell id="rnQ1suCqDnfkqFcSD9r7-17" value="A" style="rounded=0;whiteSpace=wrap;html=1;" vertex="1" parent="1">
                    <mxGeometry x="161" y="120" width="40" height="40" as="geometry"/>
                </mxCell>
                <mxCell id="rnQ1suCqDnfkqFcSD9r7-18" value="Wie beeinflussen sich die Systemvariablen gegenseitig?" style="text;html=1;align=center;verticalAlign=middle;resizable=0;points=[];autosize=1;strokeColor=none;fillColor=none;" vertex="1" parent="1">
                    <mxGeometry x="20" y="180" width="320" height="30" as="geometry"/>
                </mxCell>
                <mxCell id="rnQ1suCqDnfkqFcSD9r7-22" value="Integrator" style="text;html=1;align=center;verticalAlign=middle;resizable=0;points=[];autosize=1;strokeColor=none;fillColor=none;" vertex="1" parent="1">
                    <mxGeometry x="225" y="15" width="70" height="30" as="geometry"/>
                </mxCell>
                <mxCell id="rnQ1suCqDnfkqFcSD9r7-25" value="y" style="text;html=1;align=center;verticalAlign=middle;resizable=0;points=[];autosize=1;strokeColor=none;fillColor=none;" vertex="1" parent="1">
                    <mxGeometry x="400" y="34" width="30" height="30" as="geometry"/>
                </mxCell>
                <mxCell id="rnQ1suCqDnfkqFcSD9r7-26" value="x" style="text;html=1;align=center;verticalAlign=middle;resizable=0;points=[];autosize=1;strokeColor=none;fillColor=none;" vertex="1" parent="1">
                    <mxGeometry x="310" y="34" width="30" height="30" as="geometry"/>
                </mxCell>
                <mxCell id="rnQ1suCqDnfkqFcSD9r7-27" value="Mapping der Systemvariablen auf den Output" style="text;html=1;align=center;verticalAlign=middle;resizable=0;points=[];autosize=1;strokeColor=none;fillColor=none;" vertex="1" parent="1">
                    <mxGeometry x="340" y="100" width="260" height="30" as="geometry"/>
                </mxCell>
                <mxCell id="rnQ1suCqDnfkqFcSD9r7-30" value="x(0) = x&lt;sub&gt;0&lt;/sub&gt;" style="text;html=1;align=center;verticalAlign=middle;resizable=0;points=[];autosize=1;strokeColor=none;fillColor=none;" vertex="1" parent="1">
                    <mxGeometry x="252" y="88" width="70" height="30" as="geometry"/>
                </mxCell>
                <mxCell id="rnQ1suCqDnfkqFcSD9r7-32" value="Initialwerte&lt;br style=&quot;font-size: 5px;&quot;&gt;der Systemvariablen" style="text;html=1;align=right;verticalAlign=middle;resizable=0;points=[];autosize=1;strokeColor=none;fillColor=none;fontSize=5;" vertex="1" parent="1">
                    <mxGeometry x="190" y="83" width="70" height="30" as="geometry"/>
                </mxCell>
            </root>
        </mxGraphModel>
    </diagram>
    <diagram id="s0VekJ9dlkDnV7foZVsH" name="KonkretesLinearDiffSystem">
        <mxGraphModel dx="951" dy="714" grid="1" gridSize="10" guides="1" tooltips="1" connect="1" arrows="1" fold="1" page="1" pageScale="1" pageWidth="827" pageHeight="1169" math="0" shadow="0">
            <root>
                <mxCell id="0"/>
                <mxCell id="1" parent="0"/>
                <mxCell id="Vg9hh0HzT4dxOguyCaVp-1" value="" style="endArrow=none;html=1;rounded=0;fontSize=5;" parent="1" edge="1">
                    <mxGeometry width="50" height="50" relative="1" as="geometry">
                        <mxPoint x="40" y="320" as="sourcePoint"/>
                        <mxPoint x="700" y="320" as="targetPoint"/>
                    </mxGeometry>
                </mxCell>
                <mxCell id="Vg9hh0HzT4dxOguyCaVp-2" value="" style="endArrow=none;html=1;rounded=0;fontSize=5;" parent="1" edge="1">
                    <mxGeometry width="50" height="50" relative="1" as="geometry">
                        <mxPoint x="40" y="340" as="sourcePoint"/>
                        <mxPoint x="700" y="340" as="targetPoint"/>
                    </mxGeometry>
                </mxCell>
                <mxCell id="Vg9hh0HzT4dxOguyCaVp-3" value="" style="endArrow=none;html=1;rounded=0;fontSize=5;" parent="1" edge="1">
                    <mxGeometry width="50" height="50" relative="1" as="geometry">
                        <mxPoint x="40" y="360" as="sourcePoint"/>
                        <mxPoint x="700" y="360" as="targetPoint"/>
                    </mxGeometry>
                </mxCell>
                <mxCell id="Vg9hh0HzT4dxOguyCaVp-4" value="x&lt;sub&gt;1&lt;/sub&gt;" style="text;html=1;align=center;verticalAlign=middle;resizable=0;points=[];autosize=1;strokeColor=none;fillColor=none;fontSize=12;" parent="1" vertex="1">
                    <mxGeometry x="10" y="300" width="40" height="30" as="geometry"/>
                </mxCell>
                <mxCell id="Vg9hh0HzT4dxOguyCaVp-5" value="x&lt;span style=&quot;font-size: 10px;&quot;&gt;&lt;sub&gt;2&lt;/sub&gt;&lt;/span&gt;" style="text;html=1;align=center;verticalAlign=middle;resizable=0;points=[];autosize=1;strokeColor=none;fillColor=none;fontSize=12;" parent="1" vertex="1">
                    <mxGeometry x="15" y="320" width="30" height="30" as="geometry"/>
                </mxCell>
                <mxCell id="Vg9hh0HzT4dxOguyCaVp-6" value="x&lt;span style=&quot;font-size: 10px;&quot;&gt;&lt;sub&gt;3&lt;/sub&gt;&lt;/span&gt;" style="text;html=1;align=center;verticalAlign=middle;resizable=0;points=[];autosize=1;strokeColor=none;fillColor=none;fontSize=12;" parent="1" vertex="1">
                    <mxGeometry x="15" y="340" width="30" height="30" as="geometry"/>
                </mxCell>
                <mxCell id="Vg9hh0HzT4dxOguyCaVp-13" value="" style="endArrow=none;html=1;rounded=0;fontSize=5;" parent="1" edge="1">
                    <mxGeometry width="50" height="50" relative="1" as="geometry">
                        <mxPoint x="45" y="80" as="sourcePoint"/>
                        <mxPoint x="720" y="80" as="targetPoint"/>
                    </mxGeometry>
                </mxCell>
                <mxCell id="Vg9hh0HzT4dxOguyCaVp-14" value="" style="endArrow=none;html=1;rounded=0;fontSize=5;" parent="1" edge="1">
                    <mxGeometry width="50" height="50" relative="1" as="geometry">
                        <mxPoint x="45" y="100" as="sourcePoint"/>
                        <mxPoint x="720" y="100" as="targetPoint"/>
                    </mxGeometry>
                </mxCell>
                <mxCell id="Vg9hh0HzT4dxOguyCaVp-16" value="u&lt;sub&gt;1&lt;/sub&gt;" style="text;html=1;align=center;verticalAlign=middle;resizable=0;points=[];autosize=1;strokeColor=none;fillColor=none;fontSize=12;" parent="1" vertex="1">
                    <mxGeometry x="15" y="60" width="40" height="30" as="geometry"/>
                </mxCell>
                <mxCell id="Vg9hh0HzT4dxOguyCaVp-17" value="u&lt;span style=&quot;font-size: 10px;&quot;&gt;&lt;sub&gt;2&lt;/sub&gt;&lt;/span&gt;" style="text;html=1;align=center;verticalAlign=middle;resizable=0;points=[];autosize=1;strokeColor=none;fillColor=none;fontSize=12;" parent="1" vertex="1">
                    <mxGeometry x="20" y="80" width="30" height="30" as="geometry"/>
                </mxCell>
                <mxCell id="13hsUanon7544EjFmuAE-9" style="edgeStyle=orthogonalEdgeStyle;rounded=0;html=1;fontSize=12;startArrow=none;startFill=0;endArrow=classic;endFill=1;" parent="1" source="13hsUanon7544EjFmuAE-1" edge="1">
                    <mxGeometry relative="1" as="geometry">
                        <mxPoint x="200" y="320" as="targetPoint"/>
                        <Array as="points">
                            <mxPoint x="200" y="180"/>
                            <mxPoint x="200" y="320"/>
                        </Array>
                    </mxGeometry>
                </mxCell>
                <mxCell id="13hsUanon7544EjFmuAE-10" style="edgeStyle=orthogonalEdgeStyle;rounded=0;html=1;fontSize=12;startArrow=classic;startFill=1;endArrow=oval;endFill=0;" parent="1" source="13hsUanon7544EjFmuAE-1" edge="1">
                    <mxGeometry relative="1" as="geometry">
                        <mxPoint x="159.9999999999999" y="220" as="targetPoint"/>
                    </mxGeometry>
                </mxCell>
                <mxCell id="13hsUanon7544EjFmuAE-1" value="&lt;div style=&quot;color: rgb(59, 59, 59); background-color: rgb(255, 255, 255); font-family: Consolas, &amp;quot;Courier New&amp;quot;, monospace; line-height: 19px;&quot;&gt;&lt;font style=&quot;font-size: 23px;&quot;&gt;∫&lt;/font&gt;&lt;/div&gt;" style="rounded=0;whiteSpace=wrap;html=1;" parent="1" vertex="1">
                    <mxGeometry x="140" y="160" width="40" height="40" as="geometry"/>
                </mxCell>
                <mxCell id="13hsUanon7544EjFmuAE-3" style="rounded=0;html=1;exitX=0;exitY=1;exitDx=0;exitDy=0;fontSize=12;startArrow=classic;startFill=1;endArrow=oval;endFill=1;" parent="1" source="13hsUanon7544EjFmuAE-2" edge="1">
                    <mxGeometry relative="1" as="geometry">
                        <mxPoint x="60" y="320" as="targetPoint"/>
                    </mxGeometry>
                </mxCell>
                <mxCell id="13hsUanon7544EjFmuAE-4" style="edgeStyle=none;rounded=0;html=1;exitX=0.5;exitY=1;exitDx=0;exitDy=0;fontSize=12;startArrow=classic;startFill=1;endArrow=none;endFill=0;" parent="1" source="13hsUanon7544EjFmuAE-2" target="13hsUanon7544EjFmuAE-5" edge="1">
                    <mxGeometry relative="1" as="geometry">
                        <mxPoint x="90" y="250" as="targetPoint"/>
                    </mxGeometry>
                </mxCell>
                <mxCell id="13hsUanon7544EjFmuAE-7" style="edgeStyle=none;rounded=0;html=1;entryX=0;entryY=0.5;entryDx=0;entryDy=0;fontSize=12;startArrow=none;startFill=0;endArrow=classicThin;endFill=1;" parent="1" source="13hsUanon7544EjFmuAE-2" target="13hsUanon7544EjFmuAE-1" edge="1">
                    <mxGeometry relative="1" as="geometry"/>
                </mxCell>
                <mxCell id="13hsUanon7544EjFmuAE-8" style="edgeStyle=none;rounded=0;html=1;fontSize=12;startArrow=classic;startFill=1;endArrow=oval;endFill=1;" parent="1" source="13hsUanon7544EjFmuAE-2" edge="1">
                    <mxGeometry relative="1" as="geometry">
                        <mxPoint x="70" y="80" as="targetPoint"/>
                    </mxGeometry>
                </mxCell>
                <mxCell id="13hsUanon7544EjFmuAE-2" value="+" style="ellipse;whiteSpace=wrap;html=1;aspect=fixed;fontSize=12;" parent="1" vertex="1">
                    <mxGeometry x="80" y="160" width="40" height="40" as="geometry"/>
                </mxCell>
                <mxCell id="13hsUanon7544EjFmuAE-6" style="edgeStyle=none;rounded=0;html=1;fontSize=12;startArrow=none;startFill=0;endArrow=oval;endFill=1;" parent="1" source="13hsUanon7544EjFmuAE-5" edge="1">
                    <mxGeometry relative="1" as="geometry">
                        <mxPoint x="80" y="340" as="targetPoint"/>
                    </mxGeometry>
                </mxCell>
                <mxCell id="13hsUanon7544EjFmuAE-5" value="2" style="ellipse;whiteSpace=wrap;html=1;aspect=fixed;fontSize=12;" parent="1" vertex="1">
                    <mxGeometry x="90" y="260" width="20" height="20" as="geometry"/>
                </mxCell>
                <mxCell id="13hsUanon7544EjFmuAE-11" value="x&lt;sub&gt;1&lt;/sub&gt;(0)" style="text;html=1;align=center;verticalAlign=middle;resizable=0;points=[];autosize=1;strokeColor=none;fillColor=none;fontSize=12;" parent="1" vertex="1">
                    <mxGeometry x="140" y="217" width="50" height="30" as="geometry"/>
                </mxCell>
                <mxCell id="13hsUanon7544EjFmuAE-16" style="edgeStyle=orthogonalEdgeStyle;rounded=0;html=1;fontSize=12;startArrow=classic;startFill=1;endArrow=oval;endFill=0;" parent="1" source="13hsUanon7544EjFmuAE-17" edge="1">
                    <mxGeometry relative="1" as="geometry">
                        <mxPoint x="359.9999999999999" y="219.97" as="targetPoint"/>
                    </mxGeometry>
                </mxCell>
                <mxCell id="13hsUanon7544EjFmuAE-17" value="&lt;div style=&quot;color: rgb(59, 59, 59); background-color: rgb(255, 255, 255); font-family: Consolas, &amp;quot;Courier New&amp;quot;, monospace; line-height: 19px;&quot;&gt;&lt;font style=&quot;font-size: 23px;&quot;&gt;∫&lt;/font&gt;&lt;/div&gt;" style="rounded=0;whiteSpace=wrap;html=1;" parent="1" vertex="1">
                    <mxGeometry x="340" y="159.97" width="40" height="40" as="geometry"/>
                </mxCell>
                <mxCell id="13hsUanon7544EjFmuAE-18" style="edgeStyle=none;rounded=0;html=1;entryX=0;entryY=0.5;entryDx=0;entryDy=0;fontSize=12;startArrow=none;startFill=0;endArrow=classicThin;endFill=1;" parent="1" source="13hsUanon7544EjFmuAE-19" target="13hsUanon7544EjFmuAE-17" edge="1">
                    <mxGeometry relative="1" as="geometry"/>
                </mxCell>
                <mxCell id="13hsUanon7544EjFmuAE-21" style="rounded=0;html=1;exitX=0;exitY=1;exitDx=0;exitDy=0;fontSize=12;startArrow=classic;startFill=1;endArrow=oval;endFill=1;" parent="1" source="13hsUanon7544EjFmuAE-19" edge="1">
                    <mxGeometry relative="1" as="geometry">
                        <mxPoint x="280" y="340" as="targetPoint"/>
                    </mxGeometry>
                </mxCell>
                <mxCell id="13hsUanon7544EjFmuAE-22" style="edgeStyle=none;rounded=0;html=1;fontSize=12;startArrow=none;startFill=0;endArrow=oval;endFill=1;" parent="1" edge="1">
                    <mxGeometry relative="1" as="geometry">
                        <mxPoint x="300" y="360" as="targetPoint"/>
                        <mxPoint x="300" y="280" as="sourcePoint"/>
                    </mxGeometry>
                </mxCell>
                <mxCell id="13hsUanon7544EjFmuAE-25" style="edgeStyle=none;rounded=0;html=1;entryX=0.5;entryY=0;entryDx=0;entryDy=0;fontSize=12;startArrow=classic;startFill=1;endArrow=none;endFill=0;" parent="1" source="13hsUanon7544EjFmuAE-19" target="13hsUanon7544EjFmuAE-23" edge="1">
                    <mxGeometry relative="1" as="geometry"/>
                </mxCell>
                <mxCell id="13hsUanon7544EjFmuAE-28" style="edgeStyle=none;rounded=0;html=1;fontSize=12;startArrow=classic;startFill=1;endArrow=oval;endFill=1;" parent="1" source="13hsUanon7544EjFmuAE-19" edge="1">
                    <mxGeometry relative="1" as="geometry">
                        <mxPoint x="280" y="100" as="targetPoint"/>
                    </mxGeometry>
                </mxCell>
                <mxCell id="13hsUanon7544EjFmuAE-19" value="+" style="ellipse;whiteSpace=wrap;html=1;aspect=fixed;fontSize=12;" parent="1" vertex="1">
                    <mxGeometry x="280" y="160" width="40" height="40" as="geometry"/>
                </mxCell>
                <mxCell id="13hsUanon7544EjFmuAE-20" value="x&lt;sub&gt;2&lt;/sub&gt;(0)" style="text;html=1;align=center;verticalAlign=middle;resizable=0;points=[];autosize=1;strokeColor=none;fillColor=none;fontSize=12;" parent="1" vertex="1">
                    <mxGeometry x="340" y="216.97" width="50" height="30" as="geometry"/>
                </mxCell>
                <mxCell id="13hsUanon7544EjFmuAE-23" value="3" style="ellipse;whiteSpace=wrap;html=1;aspect=fixed;fontSize=12;" parent="1" vertex="1">
                    <mxGeometry x="290" y="260" width="20" height="20" as="geometry"/>
                </mxCell>
                <mxCell id="13hsUanon7544EjFmuAE-27" style="edgeStyle=orthogonalEdgeStyle;rounded=0;html=1;fontSize=12;startArrow=none;startFill=0;endArrow=classic;endFill=1;" parent="1" edge="1">
                    <mxGeometry relative="1" as="geometry">
                        <mxPoint x="400" y="340" as="targetPoint"/>
                        <mxPoint x="380" y="179.9700000000001" as="sourcePoint"/>
                        <Array as="points">
                            <mxPoint x="400" y="179.97"/>
                            <mxPoint x="400" y="319.97"/>
                        </Array>
                    </mxGeometry>
                </mxCell>
                <mxCell id="13hsUanon7544EjFmuAE-29" style="edgeStyle=orthogonalEdgeStyle;rounded=0;html=1;fontSize=12;startArrow=classic;startFill=1;endArrow=oval;endFill=0;" parent="1" source="13hsUanon7544EjFmuAE-30" edge="1">
                    <mxGeometry relative="1" as="geometry">
                        <mxPoint x="520" y="219.97000000000003" as="targetPoint"/>
                    </mxGeometry>
                </mxCell>
                <mxCell id="13hsUanon7544EjFmuAE-30" value="&lt;div style=&quot;color: rgb(59, 59, 59); background-color: rgb(255, 255, 255); font-family: Consolas, &amp;quot;Courier New&amp;quot;, monospace; line-height: 19px;&quot;&gt;&lt;font style=&quot;font-size: 23px;&quot;&gt;∫&lt;/font&gt;&lt;/div&gt;" style="rounded=0;whiteSpace=wrap;html=1;" parent="1" vertex="1">
                    <mxGeometry x="500" y="159.97" width="40" height="40" as="geometry"/>
                </mxCell>
                <mxCell id="13hsUanon7544EjFmuAE-31" style="edgeStyle=none;rounded=0;html=1;entryX=0;entryY=0.5;entryDx=0;entryDy=0;fontSize=12;startArrow=none;startFill=0;endArrow=classicThin;endFill=1;" parent="1" source="13hsUanon7544EjFmuAE-33" target="13hsUanon7544EjFmuAE-30" edge="1">
                    <mxGeometry relative="1" as="geometry"/>
                </mxCell>
                <mxCell id="13hsUanon7544EjFmuAE-37" style="edgeStyle=none;rounded=0;html=1;exitX=0;exitY=0;exitDx=0;exitDy=0;fontSize=12;startArrow=classic;startFill=1;endArrow=oval;endFill=1;" parent="1" source="13hsUanon7544EjFmuAE-33" edge="1">
                    <mxGeometry relative="1" as="geometry">
                        <mxPoint x="420" y="80" as="targetPoint"/>
                    </mxGeometry>
                </mxCell>
                <mxCell id="13hsUanon7544EjFmuAE-38" style="edgeStyle=none;rounded=0;html=1;exitX=1;exitY=0;exitDx=0;exitDy=0;fontSize=12;startArrow=classic;startFill=1;endArrow=oval;endFill=1;" parent="1" source="13hsUanon7544EjFmuAE-33" edge="1">
                    <mxGeometry relative="1" as="geometry">
                        <mxPoint x="460" y="100" as="targetPoint"/>
                    </mxGeometry>
                </mxCell>
                <mxCell id="13hsUanon7544EjFmuAE-39" style="edgeStyle=none;rounded=0;html=1;exitX=0.5;exitY=1;exitDx=0;exitDy=0;fontSize=12;startArrow=classic;startFill=1;endArrow=oval;endFill=1;" parent="1" source="13hsUanon7544EjFmuAE-33" edge="1">
                    <mxGeometry relative="1" as="geometry">
                        <mxPoint x="460.2413793103449" y="340" as="targetPoint"/>
                    </mxGeometry>
                </mxCell>
                <mxCell id="13hsUanon7544EjFmuAE-40" style="edgeStyle=none;rounded=0;html=1;exitX=1;exitY=1;exitDx=0;exitDy=0;fontSize=12;startArrow=classic;startFill=1;endArrow=oval;endFill=1;" parent="1" source="13hsUanon7544EjFmuAE-33" edge="1">
                    <mxGeometry relative="1" as="geometry">
                        <mxPoint x="480" y="360" as="targetPoint"/>
                    </mxGeometry>
                </mxCell>
                <mxCell id="13hsUanon7544EjFmuAE-33" value="+" style="ellipse;whiteSpace=wrap;html=1;aspect=fixed;fontSize=12;" parent="1" vertex="1">
                    <mxGeometry x="440" y="160" width="40" height="40" as="geometry"/>
                </mxCell>
                <mxCell id="13hsUanon7544EjFmuAE-34" value="x&lt;sub&gt;3&lt;/sub&gt;(0)" style="text;html=1;align=center;verticalAlign=middle;resizable=0;points=[];autosize=1;strokeColor=none;fillColor=none;fontSize=12;" parent="1" vertex="1">
                    <mxGeometry x="500" y="216.97" width="50" height="30" as="geometry"/>
                </mxCell>
                <mxCell id="13hsUanon7544EjFmuAE-36" style="edgeStyle=orthogonalEdgeStyle;rounded=0;html=1;fontSize=12;startArrow=none;startFill=0;endArrow=classic;endFill=1;" parent="1" edge="1">
                    <mxGeometry relative="1" as="geometry">
                        <mxPoint x="560" y="360" as="targetPoint"/>
                        <mxPoint x="540" y="179.97000000000014" as="sourcePoint"/>
                        <Array as="points">
                            <mxPoint x="560" y="179.97"/>
                            <mxPoint x="560" y="319.97"/>
                        </Array>
                    </mxGeometry>
                </mxCell>
                <mxCell id="13hsUanon7544EjFmuAE-42" style="edgeStyle=none;rounded=0;html=1;entryX=0;entryY=1;entryDx=0;entryDy=0;fontSize=12;startArrow=none;startFill=0;endArrow=classic;endFill=1;" parent="1" source="13hsUanon7544EjFmuAE-41" target="13hsUanon7544EjFmuAE-33" edge="1">
                    <mxGeometry relative="1" as="geometry"/>
                </mxCell>
                <mxCell id="13hsUanon7544EjFmuAE-43" style="edgeStyle=none;rounded=0;html=1;exitX=0.5;exitY=1;exitDx=0;exitDy=0;fontSize=12;startArrow=none;startFill=0;endArrow=none;endFill=0;" parent="1" source="13hsUanon7544EjFmuAE-41" edge="1">
                    <mxGeometry relative="1" as="geometry">
                        <mxPoint x="440.2413793103449" y="320" as="targetPoint"/>
                    </mxGeometry>
                </mxCell>
                <mxCell id="13hsUanon7544EjFmuAE-41" value="2" style="ellipse;whiteSpace=wrap;html=1;aspect=fixed;fontSize=12;" parent="1" vertex="1">
                    <mxGeometry x="430" y="260" width="20" height="20" as="geometry"/>
                </mxCell>
                <mxCell id="13hsUanon7544EjFmuAE-48" style="edgeStyle=none;rounded=0;html=1;exitX=0;exitY=1;exitDx=0;exitDy=0;fontSize=12;startArrow=classic;startFill=1;endArrow=oval;endFill=1;" parent="1" source="13hsUanon7544EjFmuAE-44" edge="1">
                    <mxGeometry relative="1" as="geometry">
                        <mxPoint x="640" y="319.9999999999999" as="targetPoint"/>
                    </mxGeometry>
                </mxCell>
                <mxCell id="13hsUanon7544EjFmuAE-49" style="edgeStyle=none;rounded=0;html=1;fontSize=12;startArrow=none;startFill=0;endArrow=classic;endFill=1;" parent="1" source="13hsUanon7544EjFmuAE-44" edge="1">
                    <mxGeometry relative="1" as="geometry">
                        <mxPoint x="720" y="180" as="targetPoint"/>
                    </mxGeometry>
                </mxCell>
                <mxCell id="13hsUanon7544EjFmuAE-44" value="+" style="ellipse;whiteSpace=wrap;html=1;aspect=fixed;fontSize=12;" parent="1" vertex="1">
                    <mxGeometry x="640" y="159.97" width="40" height="40" as="geometry"/>
                </mxCell>
                <mxCell id="13hsUanon7544EjFmuAE-46" style="edgeStyle=none;rounded=0;html=1;fontSize=12;startArrow=none;startFill=0;endArrow=oval;endFill=1;" parent="1" source="13hsUanon7544EjFmuAE-45" edge="1">
                    <mxGeometry relative="1" as="geometry">
                        <mxPoint x="660" y="360" as="targetPoint"/>
                    </mxGeometry>
                </mxCell>
                <mxCell id="13hsUanon7544EjFmuAE-47" style="edgeStyle=none;rounded=0;html=1;fontSize=12;startArrow=none;startFill=0;endArrow=classic;endFill=1;" parent="1" source="13hsUanon7544EjFmuAE-45" edge="1">
                    <mxGeometry relative="1" as="geometry">
                        <mxPoint x="660" y="200" as="targetPoint"/>
                    </mxGeometry>
                </mxCell>
                <mxCell id="13hsUanon7544EjFmuAE-45" value="2" style="ellipse;whiteSpace=wrap;html=1;aspect=fixed;fontSize=12;" parent="1" vertex="1">
                    <mxGeometry x="650" y="280" width="20" height="20" as="geometry"/>
                </mxCell>
                <mxCell id="13hsUanon7544EjFmuAE-50" value="y&lt;sub&gt;1&lt;/sub&gt;" style="text;html=1;align=center;verticalAlign=middle;resizable=0;points=[];autosize=1;strokeColor=none;fillColor=none;fontSize=12;" parent="1" vertex="1">
                    <mxGeometry x="681" y="155" width="40" height="30" as="geometry"/>
                </mxCell>
            </root>
        </mxGraphModel>
    </diagram>
    <diagram id="hoBb7hpQy8gbw2nEpCmA" name="ErklaerLinearDiffSystem">
        <mxGraphModel dx="1778" dy="1883" grid="1" gridSize="10" guides="1" tooltips="1" connect="1" arrows="1" fold="1" page="1" pageScale="1" pageWidth="827" pageHeight="1169" math="0" shadow="0">
            <root>
                <mxCell id="0"/>
                <mxCell id="1" parent="0"/>
                <mxCell id="NT6Gyv-3Sn4yXsHfsgf5-55" value="" style="rounded=0;whiteSpace=wrap;html=1;fontColor=#FF3333;fillColor=none;strokeColor=#004C99;dashed=1;" vertex="1" parent="1">
                    <mxGeometry x="424" y="40" width="166" height="320" as="geometry"/>
                </mxCell>
                <mxCell id="NT6Gyv-3Sn4yXsHfsgf5-54" value="" style="rounded=0;whiteSpace=wrap;html=1;fontColor=#FF3333;fillColor=none;strokeColor=#4D9900;dashed=1;" vertex="1" parent="1">
                    <mxGeometry x="250" y="40" width="170" height="320" as="geometry"/>
                </mxCell>
                <mxCell id="1U8NiY5EysoluusE6-Ak-1" value="&lt;pre style=&quot;--tw-border-spacing-x: 0; --tw-border-spacing-y: 0; --tw-translate-x: 0; --tw-translate-y: 0; --tw-rotate: 0; --tw-skew-x: 0; --tw-skew-y: 0; --tw-scale-x: 1; --tw-scale-y: 1; --tw-pan-x: ; --tw-pan-y: ; --tw-pinch-zoom: ; --tw-scroll-snap-strictness: proximity; --tw-gradient-from-position: ; --tw-gradient-via-position: ; --tw-gradient-to-position: ; --tw-ordinal: ; --tw-slashed-zero: ; --tw-numeric-figure: ; --tw-numeric-spacing: ; --tw-numeric-fraction: ; --tw-ring-inset: ; --tw-ring-offset-width: 0px; --tw-ring-offset-color: #fff; --tw-ring-color: rgb(59 130 246 / .5); --tw-ring-offset-shadow: 0 0 #0000; --tw-ring-shadow: 0 0 #0000; --tw-shadow: 0 0 #0000; --tw-shadow-colored: 0 0 #0000; --tw-blur: ; --tw-brightness: ; --tw-contrast: ; --tw-grayscale: ; --tw-hue-rotate: ; --tw-invert: ; --tw-saturate: ; --tw-sepia: ; --tw-drop-shadow: ; --tw-backdrop-blur: ; --tw-backdrop-brightness: ; --tw-backdrop-contrast: ; --tw-backdrop-grayscale: ; --tw-backdrop-hue-rotate: ; --tw-backdrop-invert: ; --tw-backdrop-opacity: ; --tw-backdrop-saturate: ; --tw-backdrop-sepia: ; padding: 0.8em; overflow: auto; line-height: 1; border: rgb(214, 214, 214); border-radius: 3px; margin-top: 0px; margin-bottom: 0.25em; background: rgb(245, 245, 245); font-family: Consolas, &amp;quot;Liberation Mono&amp;quot;, Menlo, Courier, monospace; text-align: left; word-spacing: 0px; word-break: normal; overflow-wrap: normal; tab-size: 8; hyphens: none; font-size: 0.75em; break-inside: auto; font-style: normal; font-variant-ligatures: normal; font-variant-caps: normal; font-weight: 400; letter-spacing: normal; orphans: 2; text-indent: 0px; text-transform: none; widows: 2; -webkit-text-stroke-width: 0px; text-decoration-thickness: initial; text-decoration-style: initial; text-decoration-color: initial;&quot; class=&quot;language-text&quot; data-source-line=&quot;113&quot; data-info=&quot;{data-source-line=&amp;quot;113&amp;quot;}&quot; data-role=&quot;codeBlock&quot;&gt;&lt;code style=&quot;color: rgb(0, 0, 0); --tw-border-spacing-x: 0; --tw-border-spacing-y: 0; --tw-translate-x: 0; --tw-translate-y: 0; --tw-rotate: 0; --tw-skew-x: 0; --tw-skew-y: 0; --tw-scale-x: 1; --tw-scale-y: 1; --tw-pan-x: ; --tw-pan-y: ; --tw-pinch-zoom: ; --tw-scroll-snap-strictness: proximity; --tw-gradient-from-position: ; --tw-gradient-via-position: ; --tw-gradient-to-position: ; --tw-ordinal: ; --tw-slashed-zero: ; --tw-numeric-figure: ; --tw-numeric-spacing: ; --tw-numeric-fraction: ; --tw-ring-inset: ; --tw-ring-offset-width: 0px; --tw-ring-offset-color: #fff; --tw-ring-color: rgb(59 130 246 / .5); --tw-ring-offset-shadow: 0 0 #0000; --tw-ring-shadow: 0 0 #0000; --tw-shadow: 0 0 #0000; --tw-shadow-colored: 0 0 #0000; --tw-blur: ; --tw-brightness: ; --tw-contrast: ; --tw-grayscale: ; --tw-hue-rotate: ; --tw-invert: ; --tw-saturate: ; --tw-sepia: ; --tw-drop-shadow: ; --tw-backdrop-blur: ; --tw-backdrop-brightness: ; --tw-backdrop-contrast: ; --tw-backdrop-grayscale: ; --tw-backdrop-hue-rotate: ; --tw-backdrop-invert: ; --tw-backdrop-opacity: ; --tw-backdrop-saturate: ; --tw-backdrop-sepia: ; font-family: Menlo, Monaco, Consolas, &amp;quot;Courier New&amp;quot;, monospace; background: 0px 0px transparent; padding: 0px; border-radius: 3px; font-size: 0.75em; margin: 0px 0px 0.25em; word-break: normal; border: 0px; display: inline; max-width: initial; overflow: initial; line-height: 1; overflow-wrap: normal; break-inside: auto;&quot;&gt;A = [&lt;/code&gt;&lt;code style=&quot;--tw-border-spacing-x: 0; --tw-border-spacing-y: 0; --tw-translate-x: 0; --tw-translate-y: 0; --tw-rotate: 0; --tw-skew-x: 0; --tw-skew-y: 0; --tw-scale-x: 1; --tw-scale-y: 1; --tw-pan-x: ; --tw-pan-y: ; --tw-pinch-zoom: ; --tw-scroll-snap-strictness: proximity; --tw-gradient-from-position: ; --tw-gradient-via-position: ; --tw-gradient-to-position: ; --tw-ordinal: ; --tw-slashed-zero: ; --tw-numeric-figure: ; --tw-numeric-spacing: ; --tw-numeric-fraction: ; --tw-ring-inset: ; --tw-ring-offset-width: 0px; --tw-ring-offset-color: #fff; --tw-ring-color: rgb(59 130 246 / .5); --tw-ring-offset-shadow: 0 0 #0000; --tw-ring-shadow: 0 0 #0000; --tw-shadow: 0 0 #0000; --tw-shadow-colored: 0 0 #0000; --tw-blur: ; --tw-brightness: ; --tw-contrast: ; --tw-grayscale: ; --tw-hue-rotate: ; --tw-invert: ; --tw-saturate: ; --tw-sepia: ; --tw-drop-shadow: ; --tw-backdrop-blur: ; --tw-backdrop-brightness: ; --tw-backdrop-contrast: ; --tw-backdrop-grayscale: ; --tw-backdrop-hue-rotate: ; --tw-backdrop-invert: ; --tw-backdrop-opacity: ; --tw-backdrop-saturate: ; --tw-backdrop-sepia: ; font-family: Menlo, Monaco, Consolas, &amp;quot;Courier New&amp;quot;, monospace; background: 0px 0px transparent; padding: 0px; border-radius: 3px; font-size: 0.75em; margin: 0px 0px 0.25em; word-break: normal; border: 0px; display: inline; max-width: initial; overflow: initial; line-height: 1; overflow-wrap: normal; break-inside: auto;&quot;&gt;&lt;font color=&quot;#ff3333&quot;&gt;1  2  0&lt;/font&gt;&lt;/code&gt;&lt;code style=&quot;color: rgb(0, 0, 0); --tw-border-spacing-x: 0; --tw-border-spacing-y: 0; --tw-translate-x: 0; --tw-translate-y: 0; --tw-rotate: 0; --tw-skew-x: 0; --tw-skew-y: 0; --tw-scale-x: 1; --tw-scale-y: 1; --tw-pan-x: ; --tw-pan-y: ; --tw-pinch-zoom: ; --tw-scroll-snap-strictness: proximity; --tw-gradient-from-position: ; --tw-gradient-via-position: ; --tw-gradient-to-position: ; --tw-ordinal: ; --tw-slashed-zero: ; --tw-numeric-figure: ; --tw-numeric-spacing: ; --tw-numeric-fraction: ; --tw-ring-inset: ; --tw-ring-offset-width: 0px; --tw-ring-offset-color: #fff; --tw-ring-color: rgb(59 130 246 / .5); --tw-ring-offset-shadow: 0 0 #0000; --tw-ring-shadow: 0 0 #0000; --tw-shadow: 0 0 #0000; --tw-shadow-colored: 0 0 #0000; --tw-blur: ; --tw-brightness: ; --tw-contrast: ; --tw-grayscale: ; --tw-hue-rotate: ; --tw-invert: ; --tw-saturate: ; --tw-sepia: ; --tw-drop-shadow: ; --tw-backdrop-blur: ; --tw-backdrop-brightness: ; --tw-backdrop-contrast: ; --tw-backdrop-grayscale: ; --tw-backdrop-hue-rotate: ; --tw-backdrop-invert: ; --tw-backdrop-opacity: ; --tw-backdrop-saturate: ; --tw-backdrop-sepia: ; font-family: Menlo, Monaco, Consolas, &amp;quot;Courier New&amp;quot;, monospace; background: 0px 0px transparent; padding: 0px; border-radius: 3px; font-size: 0.75em; margin: 0px 0px 0.25em; word-break: normal; border: 0px; display: inline; max-width: initial; overflow: initial; line-height: 1; overflow-wrap: normal; break-inside: auto;&quot;&gt;]    B = [&lt;/code&gt;&lt;code style=&quot;--tw-border-spacing-x: 0; --tw-border-spacing-y: 0; --tw-translate-x: 0; --tw-translate-y: 0; --tw-rotate: 0; --tw-skew-x: 0; --tw-skew-y: 0; --tw-scale-x: 1; --tw-scale-y: 1; --tw-pan-x: ; --tw-pan-y: ; --tw-pinch-zoom: ; --tw-scroll-snap-strictness: proximity; --tw-gradient-from-position: ; --tw-gradient-via-position: ; --tw-gradient-to-position: ; --tw-ordinal: ; --tw-slashed-zero: ; --tw-numeric-figure: ; --tw-numeric-spacing: ; --tw-numeric-fraction: ; --tw-ring-inset: ; --tw-ring-offset-width: 0px; --tw-ring-offset-color: #fff; --tw-ring-color: rgb(59 130 246 / .5); --tw-ring-offset-shadow: 0 0 #0000; --tw-ring-shadow: 0 0 #0000; --tw-shadow: 0 0 #0000; --tw-shadow-colored: 0 0 #0000; --tw-blur: ; --tw-brightness: ; --tw-contrast: ; --tw-grayscale: ; --tw-hue-rotate: ; --tw-invert: ; --tw-saturate: ; --tw-sepia: ; --tw-drop-shadow: ; --tw-backdrop-blur: ; --tw-backdrop-brightness: ; --tw-backdrop-contrast: ; --tw-backdrop-grayscale: ; --tw-backdrop-hue-rotate: ; --tw-backdrop-invert: ; --tw-backdrop-opacity: ; --tw-backdrop-saturate: ; --tw-backdrop-sepia: ; font-family: Menlo, Monaco, Consolas, &amp;quot;Courier New&amp;quot;, monospace; background: 0px 0px transparent; padding: 0px; border-radius: 3px; font-size: 0.75em; margin: 0px 0px 0.25em; word-break: normal; border: 0px; display: inline; max-width: initial; overflow: initial; line-height: 1; overflow-wrap: normal; break-inside: auto;&quot;&gt;&lt;font color=&quot;#ff3333&quot;&gt;1  0&lt;/font&gt;&lt;/code&gt;&lt;code style=&quot;color: rgb(0, 0, 0); --tw-border-spacing-x: 0; --tw-border-spacing-y: 0; --tw-translate-x: 0; --tw-translate-y: 0; --tw-rotate: 0; --tw-skew-x: 0; --tw-skew-y: 0; --tw-scale-x: 1; --tw-scale-y: 1; --tw-pan-x: ; --tw-pan-y: ; --tw-pinch-zoom: ; --tw-scroll-snap-strictness: proximity; --tw-gradient-from-position: ; --tw-gradient-via-position: ; --tw-gradient-to-position: ; --tw-ordinal: ; --tw-slashed-zero: ; --tw-numeric-figure: ; --tw-numeric-spacing: ; --tw-numeric-fraction: ; --tw-ring-inset: ; --tw-ring-offset-width: 0px; --tw-ring-offset-color: #fff; --tw-ring-color: rgb(59 130 246 / .5); --tw-ring-offset-shadow: 0 0 #0000; --tw-ring-shadow: 0 0 #0000; --tw-shadow: 0 0 #0000; --tw-shadow-colored: 0 0 #0000; --tw-blur: ; --tw-brightness: ; --tw-contrast: ; --tw-grayscale: ; --tw-hue-rotate: ; --tw-invert: ; --tw-saturate: ; --tw-sepia: ; --tw-drop-shadow: ; --tw-backdrop-blur: ; --tw-backdrop-brightness: ; --tw-backdrop-contrast: ; --tw-backdrop-grayscale: ; --tw-backdrop-hue-rotate: ; --tw-backdrop-invert: ; --tw-backdrop-opacity: ; --tw-backdrop-saturate: ; --tw-backdrop-sepia: ; font-family: Menlo, Monaco, Consolas, &amp;quot;Courier New&amp;quot;, monospace; background: 0px 0px transparent; padding: 0px; border-radius: 3px; font-size: 0.75em; margin: 0px 0px 0.25em; word-break: normal; border: 0px; display: inline; max-width: initial; overflow: initial; line-height: 1; overflow-wrap: normal; break-inside: auto;&quot;&gt;]    C = [&lt;/code&gt;&lt;code style=&quot;--tw-border-spacing-x: 0; --tw-border-spacing-y: 0; --tw-translate-x: 0; --tw-translate-y: 0; --tw-rotate: 0; --tw-skew-x: 0; --tw-skew-y: 0; --tw-scale-x: 1; --tw-scale-y: 1; --tw-pan-x: ; --tw-pan-y: ; --tw-pinch-zoom: ; --tw-scroll-snap-strictness: proximity; --tw-gradient-from-position: ; --tw-gradient-via-position: ; --tw-gradient-to-position: ; --tw-ordinal: ; --tw-slashed-zero: ; --tw-numeric-figure: ; --tw-numeric-spacing: ; --tw-numeric-fraction: ; --tw-ring-inset: ; --tw-ring-offset-width: 0px; --tw-ring-offset-color: #fff; --tw-ring-color: rgb(59 130 246 / .5); --tw-ring-offset-shadow: 0 0 #0000; --tw-ring-shadow: 0 0 #0000; --tw-shadow: 0 0 #0000; --tw-shadow-colored: 0 0 #0000; --tw-blur: ; --tw-brightness: ; --tw-contrast: ; --tw-grayscale: ; --tw-hue-rotate: ; --tw-invert: ; --tw-saturate: ; --tw-sepia: ; --tw-drop-shadow: ; --tw-backdrop-blur: ; --tw-backdrop-brightness: ; --tw-backdrop-contrast: ; --tw-backdrop-grayscale: ; --tw-backdrop-hue-rotate: ; --tw-backdrop-invert: ; --tw-backdrop-opacity: ; --tw-backdrop-saturate: ; --tw-backdrop-sepia: ; font-family: Menlo, Monaco, Consolas, &amp;quot;Courier New&amp;quot;, monospace; background: 0px 0px transparent; padding: 0px; border-radius: 3px; font-size: 0.75em; margin: 0px 0px 0.25em; word-break: normal; border: 0px; display: inline; max-width: initial; overflow: initial; line-height: 1; overflow-wrap: normal; break-inside: auto;&quot;&gt;&lt;font color=&quot;#ff3333&quot;&gt;1&lt;/font&gt;&lt;/code&gt;&lt;code style=&quot;color: rgb(0, 0, 0); --tw-border-spacing-x: 0; --tw-border-spacing-y: 0; --tw-translate-x: 0; --tw-translate-y: 0; --tw-rotate: 0; --tw-skew-x: 0; --tw-skew-y: 0; --tw-scale-x: 1; --tw-scale-y: 1; --tw-pan-x: ; --tw-pan-y: ; --tw-pinch-zoom: ; --tw-scroll-snap-strictness: proximity; --tw-gradient-from-position: ; --tw-gradient-via-position: ; --tw-gradient-to-position: ; --tw-ordinal: ; --tw-slashed-zero: ; --tw-numeric-figure: ; --tw-numeric-spacing: ; --tw-numeric-fraction: ; --tw-ring-inset: ; --tw-ring-offset-width: 0px; --tw-ring-offset-color: #fff; --tw-ring-color: rgb(59 130 246 / .5); --tw-ring-offset-shadow: 0 0 #0000; --tw-ring-shadow: 0 0 #0000; --tw-shadow: 0 0 #0000; --tw-shadow-colored: 0 0 #0000; --tw-blur: ; --tw-brightness: ; --tw-contrast: ; --tw-grayscale: ; --tw-hue-rotate: ; --tw-invert: ; --tw-saturate: ; --tw-sepia: ; --tw-drop-shadow: ; --tw-backdrop-blur: ; --tw-backdrop-brightness: ; --tw-backdrop-contrast: ; --tw-backdrop-grayscale: ; --tw-backdrop-hue-rotate: ; --tw-backdrop-invert: ; --tw-backdrop-opacity: ; --tw-backdrop-saturate: ; --tw-backdrop-sepia: ; font-family: Menlo, Monaco, Consolas, &amp;quot;Courier New&amp;quot;, monospace; background: 0px 0px transparent; padding: 0px; border-radius: 3px; font-size: 0.75em; margin: 0px 0px 0.25em; word-break: normal; border: 0px; display: inline; max-width: initial; overflow: initial; line-height: 1; overflow-wrap: normal; break-inside: auto;&quot;&gt;  &lt;/code&gt;&lt;code style=&quot;--tw-border-spacing-x: 0; --tw-border-spacing-y: 0; --tw-translate-x: 0; --tw-translate-y: 0; --tw-rotate: 0; --tw-skew-x: 0; --tw-skew-y: 0; --tw-scale-x: 1; --tw-scale-y: 1; --tw-pan-x: ; --tw-pan-y: ; --tw-pinch-zoom: ; --tw-scroll-snap-strictness: proximity; --tw-gradient-from-position: ; --tw-gradient-via-position: ; --tw-gradient-to-position: ; --tw-ordinal: ; --tw-slashed-zero: ; --tw-numeric-figure: ; --tw-numeric-spacing: ; --tw-numeric-fraction: ; --tw-ring-inset: ; --tw-ring-offset-width: 0px; --tw-ring-offset-color: #fff; --tw-ring-color: rgb(59 130 246 / .5); --tw-ring-offset-shadow: 0 0 #0000; --tw-ring-shadow: 0 0 #0000; --tw-shadow: 0 0 #0000; --tw-shadow-colored: 0 0 #0000; --tw-blur: ; --tw-brightness: ; --tw-contrast: ; --tw-grayscale: ; --tw-hue-rotate: ; --tw-invert: ; --tw-saturate: ; --tw-sepia: ; --tw-drop-shadow: ; --tw-backdrop-blur: ; --tw-backdrop-brightness: ; --tw-backdrop-contrast: ; --tw-backdrop-grayscale: ; --tw-backdrop-hue-rotate: ; --tw-backdrop-invert: ; --tw-backdrop-opacity: ; --tw-backdrop-saturate: ; --tw-backdrop-sepia: ; font-family: Menlo, Monaco, Consolas, &amp;quot;Courier New&amp;quot;, monospace; background: 0px 0px transparent; padding: 0px; border-radius: 3px; font-size: 0.75em; margin: 0px 0px 0.25em; word-break: normal; border: 0px; display: inline; max-width: initial; overflow: initial; line-height: 1; overflow-wrap: normal; break-inside: auto;&quot;&gt;&lt;font color=&quot;#4d9900&quot;&gt;0&lt;/font&gt;&lt;/code&gt;&lt;code style=&quot;color: rgb(0, 0, 0); --tw-border-spacing-x: 0; --tw-border-spacing-y: 0; --tw-translate-x: 0; --tw-translate-y: 0; --tw-rotate: 0; --tw-skew-x: 0; --tw-skew-y: 0; --tw-scale-x: 1; --tw-scale-y: 1; --tw-pan-x: ; --tw-pan-y: ; --tw-pinch-zoom: ; --tw-scroll-snap-strictness: proximity; --tw-gradient-from-position: ; --tw-gradient-via-position: ; --tw-gradient-to-position: ; --tw-ordinal: ; --tw-slashed-zero: ; --tw-numeric-figure: ; --tw-numeric-spacing: ; --tw-numeric-fraction: ; --tw-ring-inset: ; --tw-ring-offset-width: 0px; --tw-ring-offset-color: #fff; --tw-ring-color: rgb(59 130 246 / .5); --tw-ring-offset-shadow: 0 0 #0000; --tw-ring-shadow: 0 0 #0000; --tw-shadow: 0 0 #0000; --tw-shadow-colored: 0 0 #0000; --tw-blur: ; --tw-brightness: ; --tw-contrast: ; --tw-grayscale: ; --tw-hue-rotate: ; --tw-invert: ; --tw-saturate: ; --tw-sepia: ; --tw-drop-shadow: ; --tw-backdrop-blur: ; --tw-backdrop-brightness: ; --tw-backdrop-contrast: ; --tw-backdrop-grayscale: ; --tw-backdrop-hue-rotate: ; --tw-backdrop-invert: ; --tw-backdrop-opacity: ; --tw-backdrop-saturate: ; --tw-backdrop-sepia: ; font-family: Menlo, Monaco, Consolas, &amp;quot;Courier New&amp;quot;, monospace; background: 0px 0px transparent; padding: 0px; border-radius: 3px; font-size: 0.75em; margin: 0px 0px 0.25em; word-break: normal; border: 0px; display: inline; max-width: initial; overflow: initial; line-height: 1; overflow-wrap: normal; break-inside: auto;&quot;&gt;  &lt;/code&gt;&lt;code style=&quot;--tw-border-spacing-x: 0; --tw-border-spacing-y: 0; --tw-translate-x: 0; --tw-translate-y: 0; --tw-rotate: 0; --tw-skew-x: 0; --tw-skew-y: 0; --tw-scale-x: 1; --tw-scale-y: 1; --tw-pan-x: ; --tw-pan-y: ; --tw-pinch-zoom: ; --tw-scroll-snap-strictness: proximity; --tw-gradient-from-position: ; --tw-gradient-via-position: ; --tw-gradient-to-position: ; --tw-ordinal: ; --tw-slashed-zero: ; --tw-numeric-figure: ; --tw-numeric-spacing: ; --tw-numeric-fraction: ; --tw-ring-inset: ; --tw-ring-offset-width: 0px; --tw-ring-offset-color: #fff; --tw-ring-color: rgb(59 130 246 / .5); --tw-ring-offset-shadow: 0 0 #0000; --tw-ring-shadow: 0 0 #0000; --tw-shadow: 0 0 #0000; --tw-shadow-colored: 0 0 #0000; --tw-blur: ; --tw-brightness: ; --tw-contrast: ; --tw-grayscale: ; --tw-hue-rotate: ; --tw-invert: ; --tw-saturate: ; --tw-sepia: ; --tw-drop-shadow: ; --tw-backdrop-blur: ; --tw-backdrop-brightness: ; --tw-backdrop-contrast: ; --tw-backdrop-grayscale: ; --tw-backdrop-hue-rotate: ; --tw-backdrop-invert: ; --tw-backdrop-opacity: ; --tw-backdrop-saturate: ; --tw-backdrop-sepia: ; font-family: Menlo, Monaco, Consolas, &amp;quot;Courier New&amp;quot;, monospace; background: 0px 0px transparent; padding: 0px; border-radius: 3px; font-size: 0.75em; margin: 0px 0px 0.25em; word-break: normal; border: 0px; display: inline; max-width: initial; overflow: initial; line-height: 1; overflow-wrap: normal; break-inside: auto;&quot;&gt;&lt;font color=&quot;#004c99&quot;&gt;2&lt;/font&gt;&lt;/code&gt;&lt;code style=&quot;color: rgb(0, 0, 0); --tw-border-spacing-x: 0; --tw-border-spacing-y: 0; --tw-translate-x: 0; --tw-translate-y: 0; --tw-rotate: 0; --tw-skew-x: 0; --tw-skew-y: 0; --tw-scale-x: 1; --tw-scale-y: 1; --tw-pan-x: ; --tw-pan-y: ; --tw-pinch-zoom: ; --tw-scroll-snap-strictness: proximity; --tw-gradient-from-position: ; --tw-gradient-via-position: ; --tw-gradient-to-position: ; --tw-ordinal: ; --tw-slashed-zero: ; --tw-numeric-figure: ; --tw-numeric-spacing: ; --tw-numeric-fraction: ; --tw-ring-inset: ; --tw-ring-offset-width: 0px; --tw-ring-offset-color: #fff; --tw-ring-color: rgb(59 130 246 / .5); --tw-ring-offset-shadow: 0 0 #0000; --tw-ring-shadow: 0 0 #0000; --tw-shadow: 0 0 #0000; --tw-shadow-colored: 0 0 #0000; --tw-blur: ; --tw-brightness: ; --tw-contrast: ; --tw-grayscale: ; --tw-hue-rotate: ; --tw-invert: ; --tw-saturate: ; --tw-sepia: ; --tw-drop-shadow: ; --tw-backdrop-blur: ; --tw-backdrop-brightness: ; --tw-backdrop-contrast: ; --tw-backdrop-grayscale: ; --tw-backdrop-hue-rotate: ; --tw-backdrop-invert: ; --tw-backdrop-opacity: ; --tw-backdrop-saturate: ; --tw-backdrop-sepia: ; font-family: Menlo, Monaco, Consolas, &amp;quot;Courier New&amp;quot;, monospace; background: 0px 0px transparent; padding: 0px; border-radius: 3px; font-size: 0.75em; margin: 0px 0px 0.25em; word-break: normal; border: 0px; display: inline; max-width: initial; overflow: initial; line-height: 1; overflow-wrap: normal; break-inside: auto;&quot;&gt;]&lt;br&gt;    [&lt;/code&gt;&lt;code style=&quot;--tw-border-spacing-x: 0; --tw-border-spacing-y: 0; --tw-translate-x: 0; --tw-translate-y: 0; --tw-rotate: 0; --tw-skew-x: 0; --tw-skew-y: 0; --tw-scale-x: 1; --tw-scale-y: 1; --tw-pan-x: ; --tw-pan-y: ; --tw-pinch-zoom: ; --tw-scroll-snap-strictness: proximity; --tw-gradient-from-position: ; --tw-gradient-via-position: ; --tw-gradient-to-position: ; --tw-ordinal: ; --tw-slashed-zero: ; --tw-numeric-figure: ; --tw-numeric-spacing: ; --tw-numeric-fraction: ; --tw-ring-inset: ; --tw-ring-offset-width: 0px; --tw-ring-offset-color: #fff; --tw-ring-color: rgb(59 130 246 / .5); --tw-ring-offset-shadow: 0 0 #0000; --tw-ring-shadow: 0 0 #0000; --tw-shadow: 0 0 #0000; --tw-shadow-colored: 0 0 #0000; --tw-blur: ; --tw-brightness: ; --tw-contrast: ; --tw-grayscale: ; --tw-hue-rotate: ; --tw-invert: ; --tw-saturate: ; --tw-sepia: ; --tw-drop-shadow: ; --tw-backdrop-blur: ; --tw-backdrop-brightness: ; --tw-backdrop-contrast: ; --tw-backdrop-grayscale: ; --tw-backdrop-hue-rotate: ; --tw-backdrop-invert: ; --tw-backdrop-opacity: ; --tw-backdrop-saturate: ; --tw-backdrop-sepia: ; font-family: Menlo, Monaco, Consolas, &amp;quot;Courier New&amp;quot;, monospace; background: 0px 0px transparent; padding: 0px; border-radius: 3px; font-size: 0.75em; margin: 0px 0px 0.25em; word-break: normal; border: 0px; display: inline; max-width: initial; overflow: initial; line-height: 1; overflow-wrap: normal; break-inside: auto;&quot;&gt;&lt;font color=&quot;#4d9900&quot;&gt;0  1  3&lt;/font&gt;&lt;/code&gt;&lt;code style=&quot;color: rgb(0, 0, 0); --tw-border-spacing-x: 0; --tw-border-spacing-y: 0; --tw-translate-x: 0; --tw-translate-y: 0; --tw-rotate: 0; --tw-skew-x: 0; --tw-skew-y: 0; --tw-scale-x: 1; --tw-scale-y: 1; --tw-pan-x: ; --tw-pan-y: ; --tw-pinch-zoom: ; --tw-scroll-snap-strictness: proximity; --tw-gradient-from-position: ; --tw-gradient-via-position: ; --tw-gradient-to-position: ; --tw-ordinal: ; --tw-slashed-zero: ; --tw-numeric-figure: ; --tw-numeric-spacing: ; --tw-numeric-fraction: ; --tw-ring-inset: ; --tw-ring-offset-width: 0px; --tw-ring-offset-color: #fff; --tw-ring-color: rgb(59 130 246 / .5); --tw-ring-offset-shadow: 0 0 #0000; --tw-ring-shadow: 0 0 #0000; --tw-shadow: 0 0 #0000; --tw-shadow-colored: 0 0 #0000; --tw-blur: ; --tw-brightness: ; --tw-contrast: ; --tw-grayscale: ; --tw-hue-rotate: ; --tw-invert: ; --tw-saturate: ; --tw-sepia: ; --tw-drop-shadow: ; --tw-backdrop-blur: ; --tw-backdrop-brightness: ; --tw-backdrop-contrast: ; --tw-backdrop-grayscale: ; --tw-backdrop-hue-rotate: ; --tw-backdrop-invert: ; --tw-backdrop-opacity: ; --tw-backdrop-saturate: ; --tw-backdrop-sepia: ; font-family: Menlo, Monaco, Consolas, &amp;quot;Courier New&amp;quot;, monospace; background: 0px 0px transparent; padding: 0px; border-radius: 3px; font-size: 0.75em; margin: 0px 0px 0.25em; word-break: normal; border: 0px; display: inline; max-width: initial; overflow: initial; line-height: 1; overflow-wrap: normal; break-inside: auto;&quot;&gt;]        [&lt;/code&gt;&lt;code style=&quot;--tw-border-spacing-x: 0; --tw-border-spacing-y: 0; --tw-translate-x: 0; --tw-translate-y: 0; --tw-rotate: 0; --tw-skew-x: 0; --tw-skew-y: 0; --tw-scale-x: 1; --tw-scale-y: 1; --tw-pan-x: ; --tw-pan-y: ; --tw-pinch-zoom: ; --tw-scroll-snap-strictness: proximity; --tw-gradient-from-position: ; --tw-gradient-via-position: ; --tw-gradient-to-position: ; --tw-ordinal: ; --tw-slashed-zero: ; --tw-numeric-figure: ; --tw-numeric-spacing: ; --tw-numeric-fraction: ; --tw-ring-inset: ; --tw-ring-offset-width: 0px; --tw-ring-offset-color: #fff; --tw-ring-color: rgb(59 130 246 / .5); --tw-ring-offset-shadow: 0 0 #0000; --tw-ring-shadow: 0 0 #0000; --tw-shadow: 0 0 #0000; --tw-shadow-colored: 0 0 #0000; --tw-blur: ; --tw-brightness: ; --tw-contrast: ; --tw-grayscale: ; --tw-hue-rotate: ; --tw-invert: ; --tw-saturate: ; --tw-sepia: ; --tw-drop-shadow: ; --tw-backdrop-blur: ; --tw-backdrop-brightness: ; --tw-backdrop-contrast: ; --tw-backdrop-grayscale: ; --tw-backdrop-hue-rotate: ; --tw-backdrop-invert: ; --tw-backdrop-opacity: ; --tw-backdrop-saturate: ; --tw-backdrop-sepia: ; font-family: Menlo, Monaco, Consolas, &amp;quot;Courier New&amp;quot;, monospace; background: 0px 0px transparent; padding: 0px; border-radius: 3px; font-size: 0.75em; margin: 0px 0px 0.25em; word-break: normal; border: 0px; display: inline; max-width: initial; overflow: initial; line-height: 1; overflow-wrap: normal; break-inside: auto;&quot;&gt;&lt;font color=&quot;#4d9900&quot;&gt;0  1&lt;/font&gt;&lt;/code&gt;&lt;code style=&quot;color: rgb(0, 0, 0); --tw-border-spacing-x: 0; --tw-border-spacing-y: 0; --tw-translate-x: 0; --tw-translate-y: 0; --tw-rotate: 0; --tw-skew-x: 0; --tw-skew-y: 0; --tw-scale-x: 1; --tw-scale-y: 1; --tw-pan-x: ; --tw-pan-y: ; --tw-pinch-zoom: ; --tw-scroll-snap-strictness: proximity; --tw-gradient-from-position: ; --tw-gradient-via-position: ; --tw-gradient-to-position: ; --tw-ordinal: ; --tw-slashed-zero: ; --tw-numeric-figure: ; --tw-numeric-spacing: ; --tw-numeric-fraction: ; --tw-ring-inset: ; --tw-ring-offset-width: 0px; --tw-ring-offset-color: #fff; --tw-ring-color: rgb(59 130 246 / .5); --tw-ring-offset-shadow: 0 0 #0000; --tw-ring-shadow: 0 0 #0000; --tw-shadow: 0 0 #0000; --tw-shadow-colored: 0 0 #0000; --tw-blur: ; --tw-brightness: ; --tw-contrast: ; --tw-grayscale: ; --tw-hue-rotate: ; --tw-invert: ; --tw-saturate: ; --tw-sepia: ; --tw-drop-shadow: ; --tw-backdrop-blur: ; --tw-backdrop-brightness: ; --tw-backdrop-contrast: ; --tw-backdrop-grayscale: ; --tw-backdrop-hue-rotate: ; --tw-backdrop-invert: ; --tw-backdrop-opacity: ; --tw-backdrop-saturate: ; --tw-backdrop-sepia: ; font-family: Menlo, Monaco, Consolas, &amp;quot;Courier New&amp;quot;, monospace; background: 0px 0px transparent; padding: 0px; border-radius: 3px; font-size: 0.75em; margin: 0px 0px 0.25em; word-break: normal; border: 0px; display: inline; max-width: initial; overflow: initial; line-height: 1; overflow-wrap: normal; break-inside: auto;&quot;&gt;]&lt;br&gt;    [&lt;/code&gt;&lt;code style=&quot;--tw-border-spacing-x: 0; --tw-border-spacing-y: 0; --tw-translate-x: 0; --tw-translate-y: 0; --tw-rotate: 0; --tw-skew-x: 0; --tw-skew-y: 0; --tw-scale-x: 1; --tw-scale-y: 1; --tw-pan-x: ; --tw-pan-y: ; --tw-pinch-zoom: ; --tw-scroll-snap-strictness: proximity; --tw-gradient-from-position: ; --tw-gradient-via-position: ; --tw-gradient-to-position: ; --tw-ordinal: ; --tw-slashed-zero: ; --tw-numeric-figure: ; --tw-numeric-spacing: ; --tw-numeric-fraction: ; --tw-ring-inset: ; --tw-ring-offset-width: 0px; --tw-ring-offset-color: #fff; --tw-ring-color: rgb(59 130 246 / .5); --tw-ring-offset-shadow: 0 0 #0000; --tw-ring-shadow: 0 0 #0000; --tw-shadow: 0 0 #0000; --tw-shadow-colored: 0 0 #0000; --tw-blur: ; --tw-brightness: ; --tw-contrast: ; --tw-grayscale: ; --tw-hue-rotate: ; --tw-invert: ; --tw-saturate: ; --tw-sepia: ; --tw-drop-shadow: ; --tw-backdrop-blur: ; --tw-backdrop-brightness: ; --tw-backdrop-contrast: ; --tw-backdrop-grayscale: ; --tw-backdrop-hue-rotate: ; --tw-backdrop-invert: ; --tw-backdrop-opacity: ; --tw-backdrop-saturate: ; --tw-backdrop-sepia: ; font-family: Menlo, Monaco, Consolas, &amp;quot;Courier New&amp;quot;, monospace; background: 0px 0px transparent; padding: 0px; border-radius: 3px; font-size: 0.75em; margin: 0px 0px 0.25em; word-break: normal; border: 0px; display: inline; max-width: initial; overflow: initial; line-height: 1; overflow-wrap: normal; break-inside: auto;&quot;&gt;&lt;font color=&quot;#004c99&quot;&gt;2  1  1]&lt;/font&gt;&lt;/code&gt;&lt;code style=&quot;color: rgb(0, 0, 0); --tw-border-spacing-x: 0; --tw-border-spacing-y: 0; --tw-translate-x: 0; --tw-translate-y: 0; --tw-rotate: 0; --tw-skew-x: 0; --tw-skew-y: 0; --tw-scale-x: 1; --tw-scale-y: 1; --tw-pan-x: ; --tw-pan-y: ; --tw-pinch-zoom: ; --tw-scroll-snap-strictness: proximity; --tw-gradient-from-position: ; --tw-gradient-via-position: ; --tw-gradient-to-position: ; --tw-ordinal: ; --tw-slashed-zero: ; --tw-numeric-figure: ; --tw-numeric-spacing: ; --tw-numeric-fraction: ; --tw-ring-inset: ; --tw-ring-offset-width: 0px; --tw-ring-offset-color: #fff; --tw-ring-color: rgb(59 130 246 / .5); --tw-ring-offset-shadow: 0 0 #0000; --tw-ring-shadow: 0 0 #0000; --tw-shadow: 0 0 #0000; --tw-shadow-colored: 0 0 #0000; --tw-blur: ; --tw-brightness: ; --tw-contrast: ; --tw-grayscale: ; --tw-hue-rotate: ; --tw-invert: ; --tw-saturate: ; --tw-sepia: ; --tw-drop-shadow: ; --tw-backdrop-blur: ; --tw-backdrop-brightness: ; --tw-backdrop-contrast: ; --tw-backdrop-grayscale: ; --tw-backdrop-hue-rotate: ; --tw-backdrop-invert: ; --tw-backdrop-opacity: ; --tw-backdrop-saturate: ; --tw-backdrop-sepia: ; font-family: Menlo, Monaco, Consolas, &amp;quot;Courier New&amp;quot;, monospace; background: 0px 0px transparent; padding: 0px; border-radius: 3px; font-size: 0.75em; margin: 0px 0px 0.25em; word-break: normal; border: 0px; display: inline; max-width: initial; overflow: initial; line-height: 1; overflow-wrap: normal; break-inside: auto;&quot;&gt;        [&lt;/code&gt;&lt;code style=&quot;--tw-border-spacing-x: 0; --tw-border-spacing-y: 0; --tw-translate-x: 0; --tw-translate-y: 0; --tw-rotate: 0; --tw-skew-x: 0; --tw-skew-y: 0; --tw-scale-x: 1; --tw-scale-y: 1; --tw-pan-x: ; --tw-pan-y: ; --tw-pinch-zoom: ; --tw-scroll-snap-strictness: proximity; --tw-gradient-from-position: ; --tw-gradient-via-position: ; --tw-gradient-to-position: ; --tw-ordinal: ; --tw-slashed-zero: ; --tw-numeric-figure: ; --tw-numeric-spacing: ; --tw-numeric-fraction: ; --tw-ring-inset: ; --tw-ring-offset-width: 0px; --tw-ring-offset-color: #fff; --tw-ring-color: rgb(59 130 246 / .5); --tw-ring-offset-shadow: 0 0 #0000; --tw-ring-shadow: 0 0 #0000; --tw-shadow: 0 0 #0000; --tw-shadow-colored: 0 0 #0000; --tw-blur: ; --tw-brightness: ; --tw-contrast: ; --tw-grayscale: ; --tw-hue-rotate: ; --tw-invert: ; --tw-saturate: ; --tw-sepia: ; --tw-drop-shadow: ; --tw-backdrop-blur: ; --tw-backdrop-brightness: ; --tw-backdrop-contrast: ; --tw-backdrop-grayscale: ; --tw-backdrop-hue-rotate: ; --tw-backdrop-invert: ; --tw-backdrop-opacity: ; --tw-backdrop-saturate: ; --tw-backdrop-sepia: ; font-family: Menlo, Monaco, Consolas, &amp;quot;Courier New&amp;quot;, monospace; background: 0px 0px transparent; padding: 0px; border-radius: 3px; font-size: 0.75em; margin: 0px 0px 0.25em; word-break: normal; border: 0px; display: inline; max-width: initial; overflow: initial; line-height: 1; overflow-wrap: normal; break-inside: auto;&quot;&gt;&lt;font color=&quot;#004c99&quot;&gt;1  1&lt;/font&gt;&lt;/code&gt;&lt;code style=&quot;color: rgb(0, 0, 0); --tw-border-spacing-x: 0; --tw-border-spacing-y: 0; --tw-translate-x: 0; --tw-translate-y: 0; --tw-rotate: 0; --tw-skew-x: 0; --tw-skew-y: 0; --tw-scale-x: 1; --tw-scale-y: 1; --tw-pan-x: ; --tw-pan-y: ; --tw-pinch-zoom: ; --tw-scroll-snap-strictness: proximity; --tw-gradient-from-position: ; --tw-gradient-via-position: ; --tw-gradient-to-position: ; --tw-ordinal: ; --tw-slashed-zero: ; --tw-numeric-figure: ; --tw-numeric-spacing: ; --tw-numeric-fraction: ; --tw-ring-inset: ; --tw-ring-offset-width: 0px; --tw-ring-offset-color: #fff; --tw-ring-color: rgb(59 130 246 / .5); --tw-ring-offset-shadow: 0 0 #0000; --tw-ring-shadow: 0 0 #0000; --tw-shadow: 0 0 #0000; --tw-shadow-colored: 0 0 #0000; --tw-blur: ; --tw-brightness: ; --tw-contrast: ; --tw-grayscale: ; --tw-hue-rotate: ; --tw-invert: ; --tw-saturate: ; --tw-sepia: ; --tw-drop-shadow: ; --tw-backdrop-blur: ; --tw-backdrop-brightness: ; --tw-backdrop-contrast: ; --tw-backdrop-grayscale: ; --tw-backdrop-hue-rotate: ; --tw-backdrop-invert: ; --tw-backdrop-opacity: ; --tw-backdrop-saturate: ; --tw-backdrop-sepia: ; font-family: Menlo, Monaco, Consolas, &amp;quot;Courier New&amp;quot;, monospace; background: 0px 0px transparent; padding: 0px; border-radius: 3px; font-size: 0.75em; margin: 0px 0px 0.25em; word-break: normal; border: 0px; display: inline; max-width: initial; overflow: initial; line-height: 1; overflow-wrap: normal; break-inside: auto;&quot;&gt;]&lt;/code&gt;&lt;/pre&gt;" style="text;whiteSpace=wrap;html=1;" vertex="1" parent="1">
                    <mxGeometry x="290" y="-10" width="210" height="70" as="geometry"/>
                </mxCell>
                <mxCell id="NT6Gyv-3Sn4yXsHfsgf5-1" value="" style="endArrow=none;html=1;rounded=0;fontSize=5;strokeColor=#FF3333;" edge="1" parent="1">
                    <mxGeometry width="50" height="50" relative="1" as="geometry">
                        <mxPoint x="50" y="300" as="sourcePoint"/>
                        <mxPoint x="710" y="300" as="targetPoint"/>
                    </mxGeometry>
                </mxCell>
                <mxCell id="NT6Gyv-3Sn4yXsHfsgf5-2" value="" style="endArrow=none;html=1;rounded=0;fontSize=5;strokeColor=#4D9900;" edge="1" parent="1">
                    <mxGeometry width="50" height="50" relative="1" as="geometry">
                        <mxPoint x="50" y="320" as="sourcePoint"/>
                        <mxPoint x="710" y="320" as="targetPoint"/>
                    </mxGeometry>
                </mxCell>
                <mxCell id="NT6Gyv-3Sn4yXsHfsgf5-3" value="" style="endArrow=none;html=1;rounded=0;fontSize=5;strokeColor=#004C99;" edge="1" parent="1">
                    <mxGeometry width="50" height="50" relative="1" as="geometry">
                        <mxPoint x="50" y="340" as="sourcePoint"/>
                        <mxPoint x="710" y="340" as="targetPoint"/>
                    </mxGeometry>
                </mxCell>
                <mxCell id="NT6Gyv-3Sn4yXsHfsgf5-4" value="&lt;font color=&quot;#ff3333&quot;&gt;x&lt;sub&gt;1&lt;/sub&gt;&lt;/font&gt;" style="text;html=1;align=center;verticalAlign=middle;resizable=0;points=[];autosize=1;strokeColor=none;fillColor=none;fontSize=12;" vertex="1" parent="1">
                    <mxGeometry x="20" y="280" width="40" height="30" as="geometry"/>
                </mxCell>
                <mxCell id="NT6Gyv-3Sn4yXsHfsgf5-5" value="&lt;font color=&quot;#4d9900&quot;&gt;x&lt;span style=&quot;font-size: 10px;&quot;&gt;&lt;sub&gt;2&lt;/sub&gt;&lt;/span&gt;&lt;/font&gt;" style="text;html=1;align=center;verticalAlign=middle;resizable=0;points=[];autosize=1;strokeColor=none;fillColor=none;fontSize=12;" vertex="1" parent="1">
                    <mxGeometry x="25" y="300" width="30" height="30" as="geometry"/>
                </mxCell>
                <mxCell id="NT6Gyv-3Sn4yXsHfsgf5-6" value="&lt;font color=&quot;#004c99&quot;&gt;x&lt;span style=&quot;font-size: 10px;&quot;&gt;&lt;sub&gt;3&lt;/sub&gt;&lt;/span&gt;&lt;/font&gt;" style="text;html=1;align=center;verticalAlign=middle;resizable=0;points=[];autosize=1;strokeColor=none;fillColor=none;fontSize=12;" vertex="1" parent="1">
                    <mxGeometry x="25" y="320" width="30" height="30" as="geometry"/>
                </mxCell>
                <mxCell id="NT6Gyv-3Sn4yXsHfsgf5-7" value="" style="endArrow=none;html=1;rounded=0;fontSize=5;" edge="1" parent="1">
                    <mxGeometry width="50" height="50" relative="1" as="geometry">
                        <mxPoint x="55" y="60" as="sourcePoint"/>
                        <mxPoint x="730" y="60" as="targetPoint"/>
                    </mxGeometry>
                </mxCell>
                <mxCell id="NT6Gyv-3Sn4yXsHfsgf5-8" value="" style="endArrow=none;html=1;rounded=0;fontSize=5;" edge="1" parent="1">
                    <mxGeometry width="50" height="50" relative="1" as="geometry">
                        <mxPoint x="55" y="80" as="sourcePoint"/>
                        <mxPoint x="730" y="80" as="targetPoint"/>
                    </mxGeometry>
                </mxCell>
                <mxCell id="NT6Gyv-3Sn4yXsHfsgf5-9" value="u&lt;sub&gt;1&lt;/sub&gt;" style="text;html=1;align=center;verticalAlign=middle;resizable=0;points=[];autosize=1;strokeColor=none;fillColor=none;fontSize=12;" vertex="1" parent="1">
                    <mxGeometry x="25" y="40" width="40" height="30" as="geometry"/>
                </mxCell>
                <mxCell id="NT6Gyv-3Sn4yXsHfsgf5-10" value="u&lt;span style=&quot;font-size: 10px;&quot;&gt;&lt;sub&gt;2&lt;/sub&gt;&lt;/span&gt;" style="text;html=1;align=center;verticalAlign=middle;resizable=0;points=[];autosize=1;strokeColor=none;fillColor=none;fontSize=12;" vertex="1" parent="1">
                    <mxGeometry x="30" y="60" width="30" height="30" as="geometry"/>
                </mxCell>
                <mxCell id="NT6Gyv-3Sn4yXsHfsgf5-11" style="edgeStyle=orthogonalEdgeStyle;rounded=0;html=1;fontSize=12;startArrow=none;startFill=0;endArrow=classic;endFill=1;" edge="1" parent="1" source="NT6Gyv-3Sn4yXsHfsgf5-13">
                    <mxGeometry relative="1" as="geometry">
                        <mxPoint x="210" y="300" as="targetPoint"/>
                        <Array as="points">
                            <mxPoint x="210" y="160"/>
                            <mxPoint x="210" y="300"/>
                        </Array>
                    </mxGeometry>
                </mxCell>
                <mxCell id="NT6Gyv-3Sn4yXsHfsgf5-12" style="edgeStyle=orthogonalEdgeStyle;rounded=0;html=1;fontSize=12;startArrow=classic;startFill=1;endArrow=oval;endFill=0;" edge="1" parent="1" source="NT6Gyv-3Sn4yXsHfsgf5-13">
                    <mxGeometry relative="1" as="geometry">
                        <mxPoint x="170" y="200" as="targetPoint"/>
                    </mxGeometry>
                </mxCell>
                <mxCell id="NT6Gyv-3Sn4yXsHfsgf5-13" value="&lt;div style=&quot;color: rgb(59, 59, 59); background-color: rgb(255, 255, 255); font-family: Consolas, &amp;quot;Courier New&amp;quot;, monospace; line-height: 19px;&quot;&gt;&lt;font style=&quot;font-size: 23px;&quot;&gt;∫&lt;/font&gt;&lt;/div&gt;" style="rounded=0;whiteSpace=wrap;html=1;" vertex="1" parent="1">
                    <mxGeometry x="150" y="140" width="40" height="40" as="geometry"/>
                </mxCell>
                <mxCell id="NT6Gyv-3Sn4yXsHfsgf5-14" style="rounded=0;html=1;exitX=0;exitY=1;exitDx=0;exitDy=0;fontSize=12;startArrow=classic;startFill=1;endArrow=oval;endFill=1;" edge="1" parent="1" source="NT6Gyv-3Sn4yXsHfsgf5-18">
                    <mxGeometry relative="1" as="geometry">
                        <mxPoint x="70" y="300" as="targetPoint"/>
                    </mxGeometry>
                </mxCell>
                <mxCell id="NT6Gyv-3Sn4yXsHfsgf5-15" style="edgeStyle=none;rounded=0;html=1;exitX=0.5;exitY=1;exitDx=0;exitDy=0;fontSize=12;startArrow=classic;startFill=1;endArrow=none;endFill=0;" edge="1" parent="1" source="NT6Gyv-3Sn4yXsHfsgf5-18" target="NT6Gyv-3Sn4yXsHfsgf5-20">
                    <mxGeometry relative="1" as="geometry">
                        <mxPoint x="100" y="230" as="targetPoint"/>
                    </mxGeometry>
                </mxCell>
                <mxCell id="NT6Gyv-3Sn4yXsHfsgf5-16" style="edgeStyle=none;rounded=0;html=1;entryX=0;entryY=0.5;entryDx=0;entryDy=0;fontSize=12;startArrow=none;startFill=0;endArrow=classicThin;endFill=1;" edge="1" parent="1" source="NT6Gyv-3Sn4yXsHfsgf5-18" target="NT6Gyv-3Sn4yXsHfsgf5-13">
                    <mxGeometry relative="1" as="geometry"/>
                </mxCell>
                <mxCell id="NT6Gyv-3Sn4yXsHfsgf5-17" style="edgeStyle=none;rounded=0;html=1;fontSize=12;startArrow=classic;startFill=1;endArrow=oval;endFill=1;" edge="1" parent="1" source="NT6Gyv-3Sn4yXsHfsgf5-18">
                    <mxGeometry relative="1" as="geometry">
                        <mxPoint x="80" y="60" as="targetPoint"/>
                    </mxGeometry>
                </mxCell>
                <mxCell id="NT6Gyv-3Sn4yXsHfsgf5-18" value="+" style="ellipse;whiteSpace=wrap;html=1;aspect=fixed;fontSize=12;" vertex="1" parent="1">
                    <mxGeometry x="90" y="140" width="40" height="40" as="geometry"/>
                </mxCell>
                <mxCell id="NT6Gyv-3Sn4yXsHfsgf5-19" style="edgeStyle=none;rounded=0;html=1;fontSize=12;startArrow=none;startFill=0;endArrow=oval;endFill=1;" edge="1" parent="1" source="NT6Gyv-3Sn4yXsHfsgf5-20">
                    <mxGeometry relative="1" as="geometry">
                        <mxPoint x="90" y="320" as="targetPoint"/>
                    </mxGeometry>
                </mxCell>
                <mxCell id="NT6Gyv-3Sn4yXsHfsgf5-20" value="2" style="ellipse;whiteSpace=wrap;html=1;aspect=fixed;fontSize=12;" vertex="1" parent="1">
                    <mxGeometry x="100" y="240" width="20" height="20" as="geometry"/>
                </mxCell>
                <mxCell id="NT6Gyv-3Sn4yXsHfsgf5-21" value="x&lt;sub&gt;1&lt;/sub&gt;(0)" style="text;html=1;align=center;verticalAlign=middle;resizable=0;points=[];autosize=1;strokeColor=none;fillColor=none;fontSize=12;" vertex="1" parent="1">
                    <mxGeometry x="150" y="197" width="50" height="30" as="geometry"/>
                </mxCell>
                <mxCell id="NT6Gyv-3Sn4yXsHfsgf5-22" style="edgeStyle=orthogonalEdgeStyle;rounded=0;html=1;fontSize=12;startArrow=classic;startFill=1;endArrow=oval;endFill=0;" edge="1" parent="1" source="NT6Gyv-3Sn4yXsHfsgf5-23">
                    <mxGeometry relative="1" as="geometry">
                        <mxPoint x="370" y="199.97000000000003" as="targetPoint"/>
                    </mxGeometry>
                </mxCell>
                <mxCell id="NT6Gyv-3Sn4yXsHfsgf5-23" value="&lt;div style=&quot;color: rgb(59, 59, 59); background-color: rgb(255, 255, 255); font-family: Consolas, &amp;quot;Courier New&amp;quot;, monospace; line-height: 19px;&quot;&gt;&lt;font style=&quot;font-size: 23px;&quot;&gt;∫&lt;/font&gt;&lt;/div&gt;" style="rounded=0;whiteSpace=wrap;html=1;" vertex="1" parent="1">
                    <mxGeometry x="350" y="139.97" width="40" height="40" as="geometry"/>
                </mxCell>
                <mxCell id="NT6Gyv-3Sn4yXsHfsgf5-24" style="edgeStyle=none;rounded=0;html=1;entryX=0;entryY=0.5;entryDx=0;entryDy=0;fontSize=12;startArrow=none;startFill=0;endArrow=classicThin;endFill=1;" edge="1" parent="1" source="NT6Gyv-3Sn4yXsHfsgf5-29" target="NT6Gyv-3Sn4yXsHfsgf5-23">
                    <mxGeometry relative="1" as="geometry"/>
                </mxCell>
                <mxCell id="NT6Gyv-3Sn4yXsHfsgf5-25" style="rounded=0;html=1;exitX=0;exitY=1;exitDx=0;exitDy=0;fontSize=12;startArrow=classic;startFill=1;endArrow=oval;endFill=1;" edge="1" parent="1" source="NT6Gyv-3Sn4yXsHfsgf5-29">
                    <mxGeometry relative="1" as="geometry">
                        <mxPoint x="290" y="320" as="targetPoint"/>
                    </mxGeometry>
                </mxCell>
                <mxCell id="NT6Gyv-3Sn4yXsHfsgf5-26" style="edgeStyle=none;rounded=0;html=1;fontSize=12;startArrow=none;startFill=0;endArrow=oval;endFill=1;" edge="1" parent="1">
                    <mxGeometry relative="1" as="geometry">
                        <mxPoint x="310" y="340" as="targetPoint"/>
                        <mxPoint x="310" y="260" as="sourcePoint"/>
                    </mxGeometry>
                </mxCell>
                <mxCell id="NT6Gyv-3Sn4yXsHfsgf5-27" style="edgeStyle=none;rounded=0;html=1;entryX=0.5;entryY=0;entryDx=0;entryDy=0;fontSize=12;startArrow=classic;startFill=1;endArrow=none;endFill=0;" edge="1" parent="1" source="NT6Gyv-3Sn4yXsHfsgf5-29" target="NT6Gyv-3Sn4yXsHfsgf5-31">
                    <mxGeometry relative="1" as="geometry"/>
                </mxCell>
                <mxCell id="NT6Gyv-3Sn4yXsHfsgf5-28" style="edgeStyle=none;rounded=0;html=1;fontSize=12;startArrow=classic;startFill=1;endArrow=oval;endFill=1;" edge="1" parent="1" source="NT6Gyv-3Sn4yXsHfsgf5-29">
                    <mxGeometry relative="1" as="geometry">
                        <mxPoint x="290" y="80" as="targetPoint"/>
                    </mxGeometry>
                </mxCell>
                <mxCell id="NT6Gyv-3Sn4yXsHfsgf5-29" value="+" style="ellipse;whiteSpace=wrap;html=1;aspect=fixed;fontSize=12;" vertex="1" parent="1">
                    <mxGeometry x="290" y="140" width="40" height="40" as="geometry"/>
                </mxCell>
                <mxCell id="NT6Gyv-3Sn4yXsHfsgf5-30" value="x&lt;sub&gt;2&lt;/sub&gt;(0)" style="text;html=1;align=center;verticalAlign=middle;resizable=0;points=[];autosize=1;strokeColor=none;fillColor=none;fontSize=12;" vertex="1" parent="1">
                    <mxGeometry x="350" y="196.97" width="50" height="30" as="geometry"/>
                </mxCell>
                <mxCell id="NT6Gyv-3Sn4yXsHfsgf5-31" value="3" style="ellipse;whiteSpace=wrap;html=1;aspect=fixed;fontSize=12;" vertex="1" parent="1">
                    <mxGeometry x="300" y="240" width="20" height="20" as="geometry"/>
                </mxCell>
                <mxCell id="NT6Gyv-3Sn4yXsHfsgf5-32" style="edgeStyle=orthogonalEdgeStyle;rounded=0;html=1;fontSize=12;startArrow=none;startFill=0;endArrow=classic;endFill=1;" edge="1" parent="1">
                    <mxGeometry relative="1" as="geometry">
                        <mxPoint x="410" y="320" as="targetPoint"/>
                        <mxPoint x="390" y="159.97000000000014" as="sourcePoint"/>
                        <Array as="points">
                            <mxPoint x="410" y="159.97"/>
                            <mxPoint x="410" y="299.97"/>
                        </Array>
                    </mxGeometry>
                </mxCell>
                <mxCell id="NT6Gyv-3Sn4yXsHfsgf5-33" style="edgeStyle=orthogonalEdgeStyle;rounded=0;html=1;fontSize=12;startArrow=classic;startFill=1;endArrow=oval;endFill=0;" edge="1" parent="1" source="NT6Gyv-3Sn4yXsHfsgf5-34">
                    <mxGeometry relative="1" as="geometry">
                        <mxPoint x="530" y="199.97000000000003" as="targetPoint"/>
                    </mxGeometry>
                </mxCell>
                <mxCell id="NT6Gyv-3Sn4yXsHfsgf5-34" value="&lt;div style=&quot;color: rgb(59, 59, 59); background-color: rgb(255, 255, 255); font-family: Consolas, &amp;quot;Courier New&amp;quot;, monospace; line-height: 19px;&quot;&gt;&lt;font style=&quot;font-size: 23px;&quot;&gt;∫&lt;/font&gt;&lt;/div&gt;" style="rounded=0;whiteSpace=wrap;html=1;" vertex="1" parent="1">
                    <mxGeometry x="510" y="139.97" width="40" height="40" as="geometry"/>
                </mxCell>
                <mxCell id="NT6Gyv-3Sn4yXsHfsgf5-35" style="edgeStyle=none;rounded=0;html=1;entryX=0;entryY=0.5;entryDx=0;entryDy=0;fontSize=12;startArrow=none;startFill=0;endArrow=classicThin;endFill=1;" edge="1" parent="1" source="NT6Gyv-3Sn4yXsHfsgf5-40" target="NT6Gyv-3Sn4yXsHfsgf5-34">
                    <mxGeometry relative="1" as="geometry"/>
                </mxCell>
                <mxCell id="NT6Gyv-3Sn4yXsHfsgf5-36" style="edgeStyle=none;rounded=0;html=1;exitX=0;exitY=0;exitDx=0;exitDy=0;fontSize=12;startArrow=classic;startFill=1;endArrow=oval;endFill=1;" edge="1" parent="1" source="NT6Gyv-3Sn4yXsHfsgf5-40">
                    <mxGeometry relative="1" as="geometry">
                        <mxPoint x="430" y="60" as="targetPoint"/>
                    </mxGeometry>
                </mxCell>
                <mxCell id="NT6Gyv-3Sn4yXsHfsgf5-37" style="edgeStyle=none;rounded=0;html=1;exitX=1;exitY=0;exitDx=0;exitDy=0;fontSize=12;startArrow=classic;startFill=1;endArrow=oval;endFill=1;" edge="1" parent="1" source="NT6Gyv-3Sn4yXsHfsgf5-40">
                    <mxGeometry relative="1" as="geometry">
                        <mxPoint x="470" y="80" as="targetPoint"/>
                    </mxGeometry>
                </mxCell>
                <mxCell id="NT6Gyv-3Sn4yXsHfsgf5-38" style="edgeStyle=none;rounded=0;html=1;exitX=0.5;exitY=1;exitDx=0;exitDy=0;fontSize=12;startArrow=classic;startFill=1;endArrow=oval;endFill=1;" edge="1" parent="1" source="NT6Gyv-3Sn4yXsHfsgf5-40">
                    <mxGeometry relative="1" as="geometry">
                        <mxPoint x="470.2413793103449" y="320" as="targetPoint"/>
                    </mxGeometry>
                </mxCell>
                <mxCell id="NT6Gyv-3Sn4yXsHfsgf5-39" style="edgeStyle=none;rounded=0;html=1;exitX=1;exitY=1;exitDx=0;exitDy=0;fontSize=12;startArrow=classic;startFill=1;endArrow=oval;endFill=1;" edge="1" parent="1" source="NT6Gyv-3Sn4yXsHfsgf5-40">
                    <mxGeometry relative="1" as="geometry">
                        <mxPoint x="490" y="340" as="targetPoint"/>
                    </mxGeometry>
                </mxCell>
                <mxCell id="NT6Gyv-3Sn4yXsHfsgf5-40" value="+" style="ellipse;whiteSpace=wrap;html=1;aspect=fixed;fontSize=12;" vertex="1" parent="1">
                    <mxGeometry x="450" y="140" width="40" height="40" as="geometry"/>
                </mxCell>
                <mxCell id="NT6Gyv-3Sn4yXsHfsgf5-41" value="x&lt;sub&gt;3&lt;/sub&gt;(0)" style="text;html=1;align=center;verticalAlign=middle;resizable=0;points=[];autosize=1;strokeColor=none;fillColor=none;fontSize=12;" vertex="1" parent="1">
                    <mxGeometry x="510" y="196.97" width="50" height="30" as="geometry"/>
                </mxCell>
                <mxCell id="NT6Gyv-3Sn4yXsHfsgf5-42" style="edgeStyle=orthogonalEdgeStyle;rounded=0;html=1;fontSize=12;startArrow=none;startFill=0;endArrow=classic;endFill=1;" edge="1" parent="1">
                    <mxGeometry relative="1" as="geometry">
                        <mxPoint x="570" y="340" as="targetPoint"/>
                        <mxPoint x="550" y="159.97000000000014" as="sourcePoint"/>
                        <Array as="points">
                            <mxPoint x="570" y="159.97"/>
                            <mxPoint x="570" y="299.97"/>
                        </Array>
                    </mxGeometry>
                </mxCell>
                <mxCell id="NT6Gyv-3Sn4yXsHfsgf5-43" style="edgeStyle=none;rounded=0;html=1;entryX=0;entryY=1;entryDx=0;entryDy=0;fontSize=12;startArrow=none;startFill=0;endArrow=classic;endFill=1;" edge="1" parent="1" source="NT6Gyv-3Sn4yXsHfsgf5-45" target="NT6Gyv-3Sn4yXsHfsgf5-40">
                    <mxGeometry relative="1" as="geometry"/>
                </mxCell>
                <mxCell id="NT6Gyv-3Sn4yXsHfsgf5-44" style="edgeStyle=none;rounded=0;html=1;exitX=0.5;exitY=1;exitDx=0;exitDy=0;fontSize=12;startArrow=none;startFill=0;endArrow=none;endFill=0;" edge="1" parent="1" source="NT6Gyv-3Sn4yXsHfsgf5-45">
                    <mxGeometry relative="1" as="geometry">
                        <mxPoint x="450.2413793103449" y="300" as="targetPoint"/>
                    </mxGeometry>
                </mxCell>
                <mxCell id="NT6Gyv-3Sn4yXsHfsgf5-45" value="2" style="ellipse;whiteSpace=wrap;html=1;aspect=fixed;fontSize=12;" vertex="1" parent="1">
                    <mxGeometry x="440" y="240" width="20" height="20" as="geometry"/>
                </mxCell>
                <mxCell id="NT6Gyv-3Sn4yXsHfsgf5-46" style="edgeStyle=none;rounded=0;html=1;exitX=0;exitY=1;exitDx=0;exitDy=0;fontSize=12;startArrow=classic;startFill=1;endArrow=oval;endFill=1;" edge="1" parent="1" source="NT6Gyv-3Sn4yXsHfsgf5-48">
                    <mxGeometry relative="1" as="geometry">
                        <mxPoint x="650" y="300" as="targetPoint"/>
                    </mxGeometry>
                </mxCell>
                <mxCell id="NT6Gyv-3Sn4yXsHfsgf5-47" style="edgeStyle=none;rounded=0;html=1;fontSize=12;startArrow=none;startFill=0;endArrow=classic;endFill=1;" edge="1" parent="1" source="NT6Gyv-3Sn4yXsHfsgf5-48">
                    <mxGeometry relative="1" as="geometry">
                        <mxPoint x="730" y="160" as="targetPoint"/>
                    </mxGeometry>
                </mxCell>
                <mxCell id="NT6Gyv-3Sn4yXsHfsgf5-48" value="+" style="ellipse;whiteSpace=wrap;html=1;aspect=fixed;fontSize=12;" vertex="1" parent="1">
                    <mxGeometry x="650" y="139.97" width="40" height="40" as="geometry"/>
                </mxCell>
                <mxCell id="NT6Gyv-3Sn4yXsHfsgf5-49" style="edgeStyle=none;rounded=0;html=1;fontSize=12;startArrow=none;startFill=0;endArrow=oval;endFill=1;" edge="1" parent="1" source="NT6Gyv-3Sn4yXsHfsgf5-51">
                    <mxGeometry relative="1" as="geometry">
                        <mxPoint x="670" y="340" as="targetPoint"/>
                    </mxGeometry>
                </mxCell>
                <mxCell id="NT6Gyv-3Sn4yXsHfsgf5-50" style="edgeStyle=none;rounded=0;html=1;fontSize=12;startArrow=none;startFill=0;endArrow=classic;endFill=1;" edge="1" parent="1" source="NT6Gyv-3Sn4yXsHfsgf5-51">
                    <mxGeometry relative="1" as="geometry">
                        <mxPoint x="670" y="180" as="targetPoint"/>
                    </mxGeometry>
                </mxCell>
                <mxCell id="NT6Gyv-3Sn4yXsHfsgf5-51" value="2" style="ellipse;whiteSpace=wrap;html=1;aspect=fixed;fontSize=12;" vertex="1" parent="1">
                    <mxGeometry x="660" y="260" width="20" height="20" as="geometry"/>
                </mxCell>
                <mxCell id="NT6Gyv-3Sn4yXsHfsgf5-52" value="y&lt;sub&gt;1&lt;/sub&gt;" style="text;html=1;align=center;verticalAlign=middle;resizable=0;points=[];autosize=1;strokeColor=none;fillColor=none;fontSize=12;" vertex="1" parent="1">
                    <mxGeometry x="691" y="135" width="40" height="30" as="geometry"/>
                </mxCell>
                <mxCell id="NT6Gyv-3Sn4yXsHfsgf5-53" value="" style="rounded=0;whiteSpace=wrap;html=1;fontColor=#FF3333;fillColor=none;strokeColor=#FF3333;dashed=1;" vertex="1" parent="1">
                    <mxGeometry x="60" y="40" width="180" height="320" as="geometry"/>
                </mxCell>
                <mxCell id="ZI23dSPtW-G1LfynB9_N-4" value="" style="rounded=1;whiteSpace=wrap;html=1;dashed=1;strokeColor=#000000;fontSize=9;fontColor=#000000;fillColor=none;" vertex="1" parent="1">
                    <mxGeometry x="620" y="120" width="120" height="230" as="geometry"/>
                </mxCell>
                <mxCell id="ZI23dSPtW-G1LfynB9_N-5" value="&lt;span style=&quot;color: rgb(0, 0, 0); font-family: Helvetica; font-size: 9px; font-style: normal; font-variant-ligatures: normal; font-variant-caps: normal; font-weight: 400; letter-spacing: normal; orphans: 2; text-align: center; text-indent: 0px; text-transform: none; widows: 2; word-spacing: 0px; -webkit-text-stroke-width: 0px; text-decoration-thickness: initial; text-decoration-style: initial; text-decoration-color: initial; float: none; display: inline !important;&quot;&gt;Die u&lt;/span&gt;&lt;span style=&quot;color: rgb(0, 0, 0); font-family: Helvetica; font-size: 9px; font-style: normal; font-variant-ligatures: normal; font-variant-caps: normal; font-weight: 400; letter-spacing: normal; orphans: 2; text-align: center; text-indent: 0px; text-transform: none; widows: 2; word-spacing: 0px; -webkit-text-stroke-width: 0px; text-decoration-thickness: initial; text-decoration-style: initial; text-decoration-color: initial; float: none; display: inline !important;&quot;&gt;-Verbindungen werden anhand der B-Matrix&amp;nbsp;&lt;/span&gt;erstellt." style="shape=callout;whiteSpace=wrap;html=1;perimeter=calloutPerimeter;strokeColor=#d6b656;fontSize=9;fillColor=#fff2cc;" vertex="1" parent="1">
                    <mxGeometry x="690" y="-10" width="120" height="80" as="geometry"/>
                </mxCell>
                <mxCell id="ZI23dSPtW-G1LfynB9_N-7" value="&lt;span style=&quot;color: rgb(0, 0, 0); font-family: Helvetica; font-size: 9px; font-style: normal; font-variant-ligatures: normal; font-variant-caps: normal; font-weight: 400; letter-spacing: normal; orphans: 2; text-align: center; text-indent: 0px; text-transform: none; widows: 2; word-spacing: 0px; -webkit-text-stroke-width: 0px; text-decoration-thickness: initial; text-decoration-style: initial; text-decoration-color: initial; float: none; display: inline !important;&quot;&gt;Diese&amp;nbsp;&lt;/span&gt;&lt;span style=&quot;color: rgb(0, 0, 0); font-family: Helvetica; font-size: 9px; font-style: normal; font-variant-ligatures: normal; font-variant-caps: normal; font-weight: 400; letter-spacing: normal; orphans: 2; text-align: center; text-indent: 0px; text-transform: none; widows: 2; word-spacing: 0px; -webkit-text-stroke-width: 0px; text-decoration-thickness: initial; text-decoration-style: initial; text-decoration-color: initial; float: none; display: inline !important;&quot;&gt;Verbindungen werden anhand&amp;nbsp;&amp;nbsp;der C-Matrix&amp;nbsp;&lt;/span&gt;erstellt." style="shape=callout;whiteSpace=wrap;html=1;perimeter=calloutPerimeter;strokeColor=#d6b656;fontSize=9;fillColor=#fff2cc;base=30;size=30;position=0;position2=0;" vertex="1" parent="1">
                    <mxGeometry x="720" y="280" width="130" height="60" as="geometry"/>
                </mxCell>
                <mxCell id="ZI23dSPtW-G1LfynB9_N-9" value="&lt;span style=&quot;color: rgb(0, 0, 0); font-family: Helvetica; font-size: 9px; font-style: normal; font-variant-ligatures: normal; font-variant-caps: normal; font-weight: 400; letter-spacing: normal; orphans: 2; text-align: center; text-indent: 0px; text-transform: none; widows: 2; word-spacing: 0px; -webkit-text-stroke-width: 0px; text-decoration-thickness: initial; text-decoration-style: initial; text-decoration-color: initial; float: none; display: inline !important;&quot;&gt;Diese&amp;nbsp;&lt;/span&gt;&lt;span style=&quot;color: rgb(0, 0, 0); font-family: Helvetica; font-size: 9px; font-style: normal; font-variant-ligatures: normal; font-variant-caps: normal; font-weight: 400; letter-spacing: normal; orphans: 2; text-align: center; text-indent: 0px; text-transform: none; widows: 2; word-spacing: 0px; -webkit-text-stroke-width: 0px; text-decoration-thickness: initial; text-decoration-style: initial; text-decoration-color: initial; float: none; display: inline !important;&quot;&gt;Verbindungen werden anhand&amp;nbsp;&amp;nbsp;der A-Matrix&amp;nbsp;&lt;/span&gt;erstellt." style="shape=callout;whiteSpace=wrap;html=1;perimeter=calloutPerimeter;strokeColor=#d6b656;fontSize=9;fillColor=#fff2cc;base=130;size=30;position=0.83;position2=1;" vertex="1" parent="1">
                    <mxGeometry x="-100" y="300" width="120" height="60" as="geometry"/>
                </mxCell>
            </root>
        </mxGraphModel>
    </diagram>
</mxfile>